<svg width="181" height="554" viewBox="0 0 181 554" fill="none" xmlns="http://www.w3.org/2000/svg">
<path d="M108 59.7211L111.601 61.614L110.913 57.6042L113.828 54.7645L109.801 54.1794L108 50.5307L106.199 54.1794L102.173 54.7645L105.087 57.6042L104.399 61.614L108 59.7211Z" fill="#EF9E41"/>
<g clip-path="url(#clip0_41_3504)">
<path d="M174.523 169.424L177.353 170.911L176.812 167.76L179.102 165.529L175.939 165.07L174.523 162.203L173.109 165.07L169.945 165.529L172.235 167.76L171.694 170.911L174.523 169.424Z" fill="#EF9E41"/>
</g>
<g clip-path="url(#clip1_41_3504)">
<path d="M56.5 92.4356C58.1109 92.4356 59.4167 91.1298 59.4167 89.519C59.4167 87.9081 58.1109 86.6023 56.5 86.6023C54.8891 86.6023 53.5833 87.9081 53.5833 89.519C53.5833 91.1298 54.8891 92.4356 56.5 92.4356Z" fill="#EF9E41"/>
</g>
<g clip-path="url(#clip2_41_3504)">
<path d="M155 494.355C156.841 494.355 158.333 492.863 158.333 491.022C158.333 489.181 156.841 487.688 155 487.688C153.159 487.688 151.667 489.181 151.667 491.022C151.667 492.863 153.159 494.355 155 494.355Z" fill="#EF9E41"/>
</g>
<g clip-path="url(#clip3_41_3504)">
<path d="M-1.00001 118.194C1.30124 118.194 3.16666 116.329 3.16666 114.028C3.16666 111.726 1.30124 109.861 -1.00001 109.861C-3.30126 109.861 -5.16668 111.726 -5.16668 114.028C-5.16668 116.329 -3.30126 118.194 -1.00001 118.194Z" fill="#EF9E41"/>
</g>
<g clip-path="url(#clip4_41_3504)">
<path d="M138.5 10.1131C141.031 10.1131 143.083 8.06116 143.083 5.52979C143.083 2.99842 141.031 0.946457 138.5 0.946457C135.969 0.946457 133.917 2.99842 133.917 5.52979C133.917 8.06116 135.969 10.1131 138.5 10.1131Z" fill="#EF9E41"/>
</g>
<g clip-path="url(#clip5_41_3504)">
<path d="M164.023 264.678C164.944 264.678 165.69 263.931 165.69 263.011C165.69 262.09 164.944 261.344 164.023 261.344C163.103 261.344 162.357 262.09 162.357 263.011C162.357 263.931 163.103 264.678 164.023 264.678Z" fill="#EF9E41"/>
</g>
<g clip-path="url(#clip6_41_3504)">
<path d="M44.5 301.435C46.1109 301.435 47.4167 300.129 47.4167 298.518C47.4167 296.908 46.1109 295.602 44.5 295.602C42.8891 295.602 41.5833 296.908 41.5833 298.518C41.5833 300.129 42.8891 301.435 44.5 301.435Z" fill="#EF9E41"/>
</g>
<path d="M129.648 134.125V131C129.648 130.834 129.714 130.675 129.831 130.558C129.949 130.441 130.108 130.375 130.273 130.375C130.439 130.375 130.598 130.441 130.715 130.558C130.833 130.675 130.898 130.834 130.898 131V134.125H134.023C134.189 134.125 134.348 134.191 134.465 134.308C134.583 134.425 134.648 134.584 134.648 134.75C134.648 134.916 134.583 135.075 134.465 135.192C134.348 135.309 134.189 135.375 134.023 135.375H130.898V138.5C130.898 138.666 130.833 138.825 130.715 138.942C130.598 139.059 130.439 139.125 130.273 139.125C130.108 139.125 129.949 139.059 129.831 138.942C129.714 138.825 129.648 138.666 129.648 138.5V135.375H126.523C126.358 135.375 126.199 135.309 126.081 135.192C125.964 135.075 125.898 134.916 125.898 134.75C125.898 134.584 125.964 134.425 126.081 134.308C126.199 134.191 126.358 134.125 126.523 134.125H129.648Z" fill="#EF9E41"/>
<path d="M146.557 205.8V204.133C146.557 204.045 146.592 203.96 146.654 203.898C146.717 203.835 146.802 203.8 146.89 203.8C146.979 203.8 147.063 203.835 147.126 203.898C147.188 203.96 147.223 204.045 147.223 204.133V205.8H148.89C148.979 205.8 149.063 205.835 149.126 205.898C149.188 205.96 149.223 206.045 149.223 206.133C149.223 206.222 149.188 206.307 149.126 206.369C149.063 206.432 148.979 206.467 148.89 206.467H147.223V208.133C147.223 208.222 147.188 208.307 147.126 208.369C147.063 208.432 146.979 208.467 146.89 208.467C146.802 208.467 146.717 208.432 146.654 208.369C146.592 208.307 146.557 208.222 146.557 208.133V206.467H144.89C144.802 206.467 144.717 206.432 144.654 206.369C144.592 206.307 144.557 206.222 144.557 206.133C144.557 206.045 144.592 205.96 144.654 205.898C144.717 205.835 144.802 205.8 144.89 205.8H146.557Z" fill="#EF9E41"/>
<g clip-path="url(#clip7_41_3504)">
<path d="M90.0244 241.516C91.4052 241.516 92.5244 240.397 92.5244 239.016C92.5244 237.636 91.4052 236.516 90.0244 236.516C88.6437 236.516 87.5244 237.636 87.5244 239.016C87.5244 240.397 88.6437 241.516 90.0244 241.516Z" fill="#EF9E41"/>
</g>
<path d="M47.299 150.7V148.2C47.299 148.068 47.3517 147.941 47.4455 147.847C47.5392 147.753 47.6664 147.7 47.799 147.7C47.9316 147.7 48.0588 147.753 48.1526 147.847C48.2463 147.941 48.299 148.068 48.299 148.2V150.7H50.799C50.9316 150.7 51.0588 150.753 51.1526 150.847C51.2463 150.941 51.299 151.068 51.299 151.2C51.299 151.333 51.2463 151.46 51.1526 151.554C51.0588 151.648 50.9316 151.7 50.799 151.7H48.299V154.2C48.299 154.333 48.2463 154.46 48.1526 154.554C48.0588 154.648 47.9316 154.7 47.799 154.7C47.6664 154.7 47.5392 154.648 47.4455 154.554C47.3517 154.46 47.299 154.333 47.299 154.2V151.7H44.799C44.6664 151.7 44.5392 151.648 44.4455 151.554C44.3517 151.46 44.299 151.333 44.299 151.2C44.299 151.068 44.3517 150.941 44.4455 150.847C44.5392 150.753 44.6664 150.7 44.799 150.7H47.299Z" fill="#EF9E41"/>
<path d="M44.2507 389.479L43.5142 388.742C43.4943 388.723 43.4784 388.7 43.4675 388.675C43.4566 388.649 43.4509 388.622 43.4506 388.594C43.4504 388.567 43.4556 388.539 43.4661 388.514C43.4766 388.488 43.4921 388.465 43.5116 388.445C43.5312 388.426 43.5545 388.41 43.5801 388.4C43.6057 388.389 43.6331 388.384 43.6608 388.384C43.6884 388.385 43.7158 388.39 43.7412 388.401C43.7666 388.412 43.7896 388.428 43.8088 388.448L44.5455 389.184L45.2819 388.448C45.3011 388.428 45.3241 388.412 45.3495 388.401C45.375 388.39 45.4023 388.385 45.43 388.384C45.4576 388.384 45.4851 388.389 45.5107 388.4C45.5363 388.41 45.5595 388.426 45.5791 388.445C45.5986 388.465 45.6141 388.488 45.6246 388.514C45.6351 388.539 45.6403 388.567 45.6401 388.594C45.6399 388.622 45.6341 388.649 45.6232 388.675C45.6123 388.7 45.5964 388.723 45.5765 388.742L44.84 389.479L45.5765 390.216C45.5964 390.235 45.6123 390.258 45.6232 390.283C45.6341 390.309 45.6399 390.336 45.6401 390.364C45.6403 390.391 45.6351 390.419 45.6246 390.444C45.6141 390.47 45.5986 390.493 45.5791 390.513C45.5595 390.532 45.5363 390.548 45.5107 390.558C45.4851 390.569 45.4576 390.574 45.43 390.574C45.4023 390.574 45.375 390.568 45.3495 390.557C45.3241 390.546 45.3011 390.53 45.2819 390.51L44.5455 389.774L43.8088 390.51C43.7896 390.53 43.7666 390.546 43.7412 390.557C43.7158 390.568 43.6884 390.574 43.6608 390.574C43.6331 390.574 43.6057 390.569 43.5801 390.558C43.5545 390.548 43.5312 390.532 43.5116 390.513C43.4921 390.493 43.4766 390.47 43.4661 390.444C43.4556 390.419 43.4504 390.391 43.4506 390.364C43.4509 390.336 43.4566 390.309 43.4675 390.283C43.4784 390.258 43.4943 390.235 43.5142 390.216L44.2507 389.479V389.479Z" fill="#EF9E41"/>
<path d="M71.6787 26.4375L69.4694 24.2275C69.4097 24.1698 69.3621 24.1009 69.3293 24.0246C69.2965 23.9484 69.2793 23.8664 69.2786 23.7834C69.2779 23.7004 69.2937 23.6181 69.3251 23.5413C69.3565 23.4645 69.4029 23.3947 69.4616 23.336C69.5203 23.2773 69.5901 23.2309 69.6669 23.1995C69.7437 23.1681 69.826 23.1522 69.909 23.153C69.992 23.1537 70.074 23.1709 70.1502 23.2037C70.2265 23.2364 70.2955 23.2841 70.3531 23.3437L72.5631 25.5531L74.7725 23.3437C74.8301 23.2841 74.8991 23.2364 74.9754 23.2037C75.0516 23.1709 75.1336 23.1537 75.2166 23.153C75.2996 23.1522 75.3819 23.1681 75.4587 23.1995C75.5355 23.2309 75.6053 23.2773 75.664 23.336C75.7227 23.3947 75.7691 23.4645 75.8005 23.5413C75.8319 23.6181 75.8477 23.7004 75.847 23.7834C75.8463 23.8664 75.8291 23.9484 75.7963 24.0246C75.7635 24.1009 75.7159 24.1698 75.6562 24.2275L73.4469 26.4369L75.6562 28.6469C75.7159 28.7045 75.7635 28.7735 75.7963 28.8497C75.8291 28.926 75.8463 29.008 75.847 29.091C75.8477 29.174 75.8319 29.2563 75.8005 29.3331C75.7691 29.4099 75.7227 29.4797 75.664 29.5384C75.6053 29.597 75.5355 29.6435 75.4587 29.6749C75.3819 29.7063 75.2996 29.7221 75.2166 29.7214C75.1336 29.7207 75.0516 29.7034 74.9754 29.6707C74.8991 29.6379 74.8301 29.5903 74.7725 29.5306L72.5631 27.3212L70.3531 29.5306C70.2955 29.5903 70.2265 29.6379 70.1502 29.6707C70.074 29.7034 69.992 29.7207 69.909 29.7214C69.826 29.7221 69.7437 29.7063 69.6669 29.6749C69.5901 29.6435 69.5203 29.597 69.4616 29.5384C69.4029 29.4797 69.3565 29.4099 69.3251 29.3331C69.2937 29.2563 69.2779 29.174 69.2786 29.091C69.2793 29.008 69.2965 28.926 69.3293 28.8497C69.3621 28.7735 69.4097 28.7045 69.4694 28.6469L71.6787 26.4369V26.4375Z" fill="#EF9E41"/>
<path d="M50.2883 547.7V545.2C50.2883 545.067 50.3409 544.94 50.4347 544.846C50.5285 544.752 50.6557 544.7 50.7883 544.7C50.9209 544.7 51.0481 544.752 51.1418 544.846C51.2356 544.94 51.2883 545.067 51.2883 545.2V547.7H53.7883C53.9209 547.7 54.0481 547.752 54.1418 547.846C54.2356 547.94 54.2883 548.067 54.2883 548.2C54.2883 548.332 54.2356 548.459 54.1418 548.553C54.0481 548.647 53.9209 548.7 53.7883 548.7H51.2883V551.2C51.2883 551.332 51.2356 551.459 51.1418 551.553C51.0481 551.647 50.9209 551.7 50.7883 551.7C50.6557 551.7 50.5285 551.647 50.4347 551.553C50.3409 551.459 50.2883 551.332 50.2883 551.2V548.7H47.7883C47.6557 548.7 47.5285 548.647 47.4347 548.553C47.3409 548.459 47.2883 548.332 47.2883 548.2C47.2883 548.067 47.3409 547.94 47.4347 547.846C47.5285 547.752 47.6557 547.7 47.7883 547.7H50.2883Z" fill="#EF9E41"/>
<path d="M92.3049 102.7V100.2C92.3049 100.067 92.3575 99.9402 92.4513 99.8464C92.5451 99.7527 92.6723 99.7 92.8049 99.7C92.9375 99.7 93.0647 99.7527 93.1584 99.8464C93.2522 99.9402 93.3049 100.067 93.3049 100.2V102.7H95.8049C95.9375 102.7 96.0647 102.753 96.1584 102.846C96.2522 102.94 96.3049 103.067 96.3049 103.2C96.3049 103.333 96.2522 103.46 96.1584 103.554C96.0647 103.647 95.9375 103.7 95.8049 103.7H93.3049V106.2C93.3049 106.333 93.2522 106.46 93.1584 106.554C93.0647 106.647 92.9375 106.7 92.8049 106.7C92.6723 106.7 92.5451 106.647 92.4513 106.554C92.3575 106.46 92.3049 106.333 92.3049 106.2V103.7H89.8049C89.6723 103.7 89.5451 103.647 89.4513 103.554C89.3575 103.46 89.3049 103.333 89.3049 103.2C89.3049 103.067 89.3575 102.94 89.4513 102.846C89.5451 102.753 89.6723 102.7 89.8049 102.7H92.3049Z" fill="#EF9E41"/>
<path d="M16.343 72.95L14.5755 71.182C14.5277 71.1359 14.4897 71.0807 14.4634 71.0197C14.4372 70.9587 14.4235 70.8931 14.4229 70.8267C14.4223 70.7603 14.4349 70.6945 14.4601 70.633C14.4852 70.5716 14.5224 70.5158 14.5693 70.4688C14.6162 70.4219 14.6721 70.3847 14.7335 70.3596C14.795 70.3345 14.8608 70.3218 14.9272 70.3224C14.9936 70.323 15.0592 70.3367 15.1202 70.363C15.1812 70.3892 15.2364 70.4272 15.2825 70.475L17.0505 72.2425L18.818 70.475C18.8641 70.4272 18.9193 70.3892 18.9803 70.363C19.0413 70.3367 19.1069 70.323 19.1733 70.3224C19.2397 70.3218 19.3055 70.3345 19.367 70.3596C19.4284 70.3847 19.4842 70.4219 19.5312 70.4688C19.5781 70.5158 19.6153 70.5716 19.6404 70.633C19.6655 70.6945 19.6782 70.7603 19.6776 70.8267C19.677 70.8931 19.6633 70.9587 19.637 71.0197C19.6108 71.0807 19.5728 71.1359 19.525 71.182L17.7575 72.9495L19.525 74.7175C19.5728 74.7636 19.6108 74.8188 19.637 74.8798C19.6633 74.9408 19.677 75.0064 19.6776 75.0728C19.6782 75.1392 19.6655 75.205 19.6404 75.2665C19.6153 75.3279 19.5781 75.3838 19.5312 75.4307C19.4842 75.4776 19.4284 75.5148 19.367 75.5399C19.3055 75.5651 19.2397 75.5777 19.1733 75.5771C19.1069 75.5765 19.0413 75.5628 18.9803 75.5366C18.9193 75.5103 18.8641 75.4723 18.818 75.4245L17.0505 73.657L15.2825 75.4245C15.2364 75.4723 15.1812 75.5103 15.1202 75.5366C15.0592 75.5628 14.9936 75.5765 14.9272 75.5771C14.8608 75.5777 14.795 75.5651 14.7335 75.5399C14.6721 75.5148 14.6162 75.4776 14.5693 75.4307C14.5224 75.3838 14.4852 75.3279 14.4601 75.2665C14.4349 75.205 14.4223 75.1392 14.4229 75.0728C14.4235 75.0064 14.4372 74.9408 14.4634 74.8798C14.4897 74.8188 14.5277 74.7636 14.5755 74.7175L16.343 72.9495V72.95Z" fill="#EF9E41"/>
<defs>
<clipPath id="clip0_41_3504">
<rect width="11" height="11" fill="white" transform="matrix(-1 0 0 1 180.023 161)"/>
</clipPath>
<clipPath id="clip1_41_3504">
<rect width="7" height="7" fill="white" transform="matrix(-1 0 0 1 60 86)"/>
</clipPath>
<clipPath id="clip2_41_3504">
<rect width="8" height="8" fill="white" transform="matrix(-1 0 0 1 159 487)"/>
</clipPath>
<clipPath id="clip3_41_3504">
<rect width="10" height="10" fill="white" transform="matrix(-1 0 0 1 4 109)"/>
</clipPath>
<clipPath id="clip4_41_3504">
<rect width="11" height="11" fill="white" transform="matrix(-1 0 0 1 144 0)"/>
</clipPath>
<clipPath id="clip5_41_3504">
<rect width="4" height="4" fill="white" transform="matrix(-1 0 0 1 166.023 261)"/>
</clipPath>
<clipPath id="clip6_41_3504">
<rect width="7" height="7" fill="white" transform="matrix(-1 0 0 1 48 295)"/>
</clipPath>
<clipPath id="clip7_41_3504">
<rect width="6" height="6" fill="white" transform="matrix(-1 0 0 1 93.0244 236)"/>
</clipPath>
</defs>
</svg>
