<svg width="342" height="220" viewBox="0 0 342 220" fill="none" xmlns="http://www.w3.org/2000/svg">
<path fill-rule="evenodd" clip-rule="evenodd" d="M19.375 27.2403H30.1317V77.135H19.375V27.2403ZM159.223 0.121582H169.981V77.1348H159.223V0.121582ZM143.684 11.9458H154.441V77.1348H143.684V11.9458ZM128.144 5.91786H138.901V77.1348H128.144V5.91786ZM112.608 29.5582H123.365V77.1348H112.608V29.5582ZM97.0678 17.0842H107.828V77.1348H97.0678V17.0842ZM81.5315 27.0479H92.2882V77.135H81.5315V27.0479ZM65.9916 27.0091H76.7483V77.1348H65.9916V27.0091ZM50.4549 10.7863H61.2116V77.1348H50.4549V10.7863ZM34.9149 35.7605H45.6716V77.1348H34.9149V35.7605Z" fill="#DFEDFA"/>
<path fill-rule="evenodd" clip-rule="evenodd" d="M298.374 10.8106C295.387 10.8106 292.969 8.38894 292.969 5.40184C292.969 2.4183 295.387 0 298.374 0C301.36 0 303.779 2.4183 303.779 5.40184C303.779 8.38894 301.36 10.8106 298.374 10.8106ZM68.8382 140.418H39.9525C24.4091 140.418 11.6895 153.134 11.6895 168.682C11.6895 184.225 24.4091 196.944 39.9525 196.944H284.176C309.345 196.944 329.941 176.348 329.941 151.179C329.941 126.005 309.345 105.412 284.176 105.412C273.531 105.412 264.824 96.7034 264.824 86.0603C264.824 75.4171 273.531 66.7114 284.176 66.7114H307.463C318.526 66.7114 327.58 57.6582 327.58 46.5916C327.58 35.5291 318.525 26.4752 307.463 26.4752H278.012C273.706 26.4752 270.182 22.947 270.182 18.6411C270.182 14.3346 273.706 10.8106 278.012 10.8106H283.204C286.177 10.8106 288.61 8.37501 288.61 5.40184C288.61 2.42867 286.177 0 283.204 0H263.75C263.75 0 256.313 0 249.141 0C241.968 0 241.168 8.47469 223.043 8.47469C195.032 8.47469 209.04 8.47469 181.025 8.47469C177.149 8.47469 173.973 11.6499 173.973 15.5261C173.973 19.4057 177.149 22.581 181.025 22.581H187.799C193.422 22.581 198.02 27.183 198.02 32.8014C198.02 38.4199 193.422 43.021 187.799 43.021H167.412C139.885 43.021 135.998 50.215 131.176 64.5248C126.35 78.8309 101.312 79.9864 101.312 79.9864H67.0746C58.6006 79.9864 51.6703 86.9167 51.6703 95.3873C51.6703 103.858 58.6006 110.789 67.0746 110.789H68.8382C76.9815 110.789 83.6496 117.456 83.6496 125.604C83.6496 133.755 76.9815 140.418 68.8382 140.418Z" fill="#EAEFF8"/>
<path fill-rule="evenodd" clip-rule="evenodd" d="M170.815 204.517C265.152 204.517 341.63 207.863 341.63 211.995C341.63 216.127 265.152 219.476 170.815 219.476C76.4764 219.476 0 216.127 0 211.995C0 207.863 76.4764 204.517 170.815 204.517Z" fill="#D2DFEE"/>
<path d="M151.481 41.3721H85.5547V213.93H151.481V41.3721Z" fill="#D2E5F7"/>
<path d="M151.482 41.3721H118.518V213.93H151.482V41.3721Z" fill="#C3DFFA"/>
<path d="M153.409 40.1729H80.0625V41.3712H153.409V40.1729Z" fill="#BBDBFA"/>
<path d="M104.149 50.3149H98.5703V62.0853H104.149V50.3149Z" fill="#DFEDFA"/>
<path fill-rule="evenodd" clip-rule="evenodd" d="M118.516 66.701C118.516 66.8255 111.137 66.9252 102.037 66.9252C92.9341 66.9252 85.5547 66.8255 85.5547 66.701C85.5547 66.5772 92.9341 66.4775 102.037 66.4775C111.137 66.4775 118.516 66.577 118.516 66.701Z" fill="#DFEDFA"/>
<path d="M137.4 50.3149H131.82V62.0853H137.4V50.3149Z" fill="#BBDBFA"/>
<path fill-rule="evenodd" clip-rule="evenodd" d="M151.766 66.701C151.766 66.8255 144.391 66.9252 135.287 66.9252C126.184 66.9252 118.805 66.8255 118.805 66.701C118.805 66.5772 126.184 66.4775 135.287 66.4775C144.391 66.4775 151.766 66.577 151.766 66.701Z" fill="#D2E5F7"/>
<path d="M137.4 73.6777H131.82V85.4454H137.4V73.6777Z" fill="#A4D0FC"/>
<path fill-rule="evenodd" clip-rule="evenodd" d="M151.766 90.0645C151.766 90.1856 144.391 90.288 135.287 90.288C126.184 90.288 118.805 90.1856 118.805 90.0645C118.805 89.94 126.184 89.8369 135.287 89.8369C144.391 89.8369 151.766 89.94 151.766 90.0645Z" fill="#D2E5F7"/>
<path d="M137.4 97.7412H131.82V109.509H137.4V97.7412Z" fill="#A4D0FC"/>
<path fill-rule="evenodd" clip-rule="evenodd" d="M151.766 114.129C151.766 114.252 144.391 114.352 135.287 114.352C126.184 114.352 118.805 114.252 118.805 114.129C118.805 114.004 126.184 113.905 135.287 113.905C144.391 113.905 151.766 114.004 151.766 114.129Z" fill="#D2E5F7"/>
<path d="M137.4 121.81H131.82V133.576H137.4V121.81Z" fill="#A4D0FC"/>
<path fill-rule="evenodd" clip-rule="evenodd" d="M151.766 138.196C151.766 138.32 144.391 138.42 135.287 138.42C126.184 138.42 118.805 138.32 118.805 138.196C118.805 138.067 126.184 137.972 135.287 137.972C144.391 137.972 151.766 138.067 151.766 138.196Z" fill="#D2E5F7"/>
<path d="M137.4 145.187H131.82V156.954H137.4V145.187Z" fill="#A4D0FC"/>
<path fill-rule="evenodd" clip-rule="evenodd" d="M151.766 161.572C151.766 161.697 144.391 161.794 135.287 161.794C126.184 161.794 118.805 161.697 118.805 161.572C118.805 161.448 126.184 161.345 135.287 161.345C144.391 161.345 151.766 161.448 151.766 161.572Z" fill="#D2E5F7"/>
<path d="M137.4 168.662H131.82V180.425H137.4V168.662Z" fill="#A4D0FC"/>
<path d="M137.4 192.439H131.82V204.202H137.4V192.439Z" fill="#A4D0FC"/>
<path fill-rule="evenodd" clip-rule="evenodd" d="M151.766 185.043C151.766 185.168 144.391 185.267 135.287 185.267C126.184 185.267 118.805 185.168 118.805 185.043C118.805 184.919 126.184 184.819 135.287 184.819C144.391 184.819 151.766 184.919 151.766 185.043Z" fill="#D2E5F7"/>
<path d="M104.149 74.0332H98.5703V85.8007H104.149V74.0332Z" fill="#DFEDFA"/>
<path fill-rule="evenodd" clip-rule="evenodd" d="M118.516 90.4164C118.516 90.5438 111.137 90.6433 102.037 90.6433C92.9341 90.6433 85.5547 90.5436 85.5547 90.4164C85.5547 90.2953 92.9341 90.1958 102.037 90.1958C111.137 90.1956 118.516 90.2953 118.516 90.4164Z" fill="#DFEDFA"/>
<path d="M104.149 97.752H98.5703V109.519H104.149V97.752Z" fill="#DFEDFA"/>
<path fill-rule="evenodd" clip-rule="evenodd" d="M118.516 114.135C118.516 114.26 111.137 114.363 102.037 114.363C92.9341 114.363 85.5547 114.26 85.5547 114.135C85.5547 114.011 92.9341 113.911 102.037 113.911C111.137 113.911 118.516 114.01 118.516 114.135Z" fill="#DFEDFA"/>
<path d="M104.149 121.467H98.5703V133.234H104.149V121.467Z" fill="#DFEDFA"/>
<path fill-rule="evenodd" clip-rule="evenodd" d="M118.516 137.854C118.516 137.979 111.137 138.078 102.037 138.078C92.9341 138.078 85.5547 137.979 85.5547 137.854C85.5547 137.73 92.9341 137.63 102.037 137.63C111.137 137.63 118.516 137.73 118.516 137.854Z" fill="#DFEDFA"/>
<path d="M104.149 145.187H98.5703V156.954H104.149V145.187Z" fill="#DFEDFA"/>
<path fill-rule="evenodd" clip-rule="evenodd" d="M118.516 161.572C118.516 161.697 111.137 161.794 102.037 161.794C92.9341 161.794 85.5547 161.697 85.5547 161.572C85.5547 161.448 92.9341 161.345 102.037 161.345C111.137 161.345 118.516 161.448 118.516 161.572Z" fill="#DFEDFA"/>
<path d="M104.149 168.906H98.5703V180.673H104.149V168.906Z" fill="#DFEDFA"/>
<path fill-rule="evenodd" clip-rule="evenodd" d="M118.516 185.288C118.516 185.412 111.137 185.516 102.037 185.516C92.9341 185.516 85.5547 185.412 85.5547 185.288C85.5547 185.163 92.9341 185.063 102.037 185.063C111.137 185.063 118.516 185.163 118.516 185.288Z" fill="#DFEDFA"/>
<path d="M104.149 192.621H98.5703V204.388H104.149V192.621Z" fill="#DFEDFA"/>
<path d="M92.3529 85.3706H24.6133V213.93H92.3529V85.3706Z" fill="#D2E5F7"/>
<path d="M92.3508 85.3706H60.5879V213.93H92.3508V85.3706Z" fill="#C3DFFA"/>
<path d="M44.9048 97.4678H38.8164V112.264H44.9048V97.4678Z" fill="#DFEDFA"/>
<path d="M44.9048 155.379H38.8164V170.175H44.9048V155.379Z" fill="#DFEDFA"/>
<path d="M44.9048 126.642H38.8164V141.438H44.9048V126.642Z" fill="#DFEDFA"/>
<path d="M73.4258 97.4678H67.334V112.264H73.4258V97.4678Z" fill="#BBDBFA"/>
<path d="M86.6406 97.4678H80.5488V112.264H86.6406V97.4678Z" fill="#BBDBFA"/>
<path d="M73.4258 125.546H67.334V140.343H73.4258V125.546Z" fill="#BBDBFA"/>
<path d="M86.6406 125.546H80.5488V140.343H86.6406V125.546Z" fill="#BBDBFA"/>
<path d="M73.4258 153.626H67.334V168.419H73.4258V153.626Z" fill="#BBDBFA"/>
<path d="M86.6406 153.626H80.5488V168.419H86.6406V153.626Z" fill="#BBDBFA"/>
<path d="M97.4433 82.2622H19.5234V85.4803H97.4433V82.2622Z" fill="#BBDBFA"/>
<path fill-rule="evenodd" clip-rule="evenodd" d="M92.8226 85.7858C92.8226 85.9139 77.6813 86.017 59.0117 86.017C40.3318 86.017 25.1973 85.9139 25.1973 85.7858C25.1973 85.6579 40.3318 85.5547 59.0117 85.5547C77.6813 85.5549 92.8226 85.6579 92.8226 85.7858Z" fill="#DFEDFA"/>
<path d="M293.555 39.5435H238.527V213.929H293.555V39.5435Z" fill="#D2E5F7"/>
<path d="M293.553 39.5435H266.039V213.445H293.553V39.5435Z" fill="#C3DFFA"/>
<path d="M264.244 22.4248H244.814V39.5437H264.244V22.4248Z" fill="#D2E5F7"/>
<path d="M264.242 22.4248H259.611V39.5437H264.242V22.4248Z" fill="#C3DFFA"/>
<path d="M295.165 38.5444H233.943V39.5436H295.165V38.5444Z" fill="#BBDBFA"/>
<path d="M254.047 47.0103H249.389V56.8328H254.047V47.0103Z" fill="#DFEDFA"/>
<path fill-rule="evenodd" clip-rule="evenodd" d="M266.041 60.6873C266.041 60.7911 259.883 60.8728 252.286 60.8728C244.687 60.8728 238.527 60.7911 238.527 60.6873C238.527 60.585 244.687 60.499 252.286 60.499C259.886 60.499 266.041 60.5848 266.041 60.6873Z" fill="#D2E5F7"/>
<path d="M281.796 47.0103H277.141V56.8328H281.796V47.0103Z" fill="#BBDBFA"/>
<path fill-rule="evenodd" clip-rule="evenodd" d="M293.793 60.6873C293.793 60.7911 287.631 60.8728 280.035 60.8728C272.437 60.8728 266.281 60.7911 266.281 60.6873C266.281 60.585 272.437 60.499 280.035 60.499C287.631 60.499 293.793 60.5848 293.793 60.6873Z" fill="#D2E5F7"/>
<path d="M281.796 66.5093H277.141V76.3304H281.796V66.5093Z" fill="#BBDBFA"/>
<path fill-rule="evenodd" clip-rule="evenodd" d="M293.793 80.1861C293.793 80.2892 287.631 80.3742 280.035 80.3742C272.437 80.3742 266.281 80.2892 266.281 80.1861C266.281 80.0823 272.437 79.9971 280.035 79.9971C287.631 79.9972 293.793 80.0823 293.793 80.1861Z" fill="#D2E5F7"/>
<path d="M281.796 86.5933H277.141V96.4151H281.796V86.5933Z" fill="#BBDBFA"/>
<path fill-rule="evenodd" clip-rule="evenodd" d="M293.793 100.27C293.793 100.373 287.631 100.458 280.035 100.458C272.437 100.458 266.281 100.373 266.281 100.27C266.281 100.167 272.437 100.081 280.035 100.081C287.631 100.081 293.793 100.167 293.793 100.27Z" fill="#D2E5F7"/>
<path d="M281.796 106.682H277.141V116.503H281.796V106.682Z" fill="#BBDBFA"/>
<path fill-rule="evenodd" clip-rule="evenodd" d="M293.793 120.359C293.793 120.462 287.631 120.543 280.035 120.543C272.437 120.543 266.281 120.462 266.281 120.359C266.281 120.255 272.437 120.169 280.035 120.169C287.631 120.17 293.793 120.255 293.793 120.359Z" fill="#D2E5F7"/>
<path d="M281.796 126.193H277.141V136.016H281.796V126.193Z" fill="#BBDBFA"/>
<path fill-rule="evenodd" clip-rule="evenodd" d="M293.793 139.87C293.793 139.974 287.631 140.059 280.035 140.059C272.437 140.059 266.281 139.974 266.281 139.87C266.281 139.768 272.437 139.682 280.035 139.682C287.631 139.682 293.793 139.768 293.793 139.87Z" fill="#D2E5F7"/>
<path d="M281.796 145.784H277.141V155.605H281.796V145.784Z" fill="#BBDBFA"/>
<path d="M281.796 165.63H277.141V175.453H281.796V165.63Z" fill="#BBDBFA"/>
<path fill-rule="evenodd" clip-rule="evenodd" d="M293.793 159.461C293.793 159.564 287.631 159.65 280.035 159.65C272.437 159.65 266.281 159.564 266.281 159.461C266.281 159.357 272.437 159.273 280.035 159.273C287.631 159.273 293.793 159.357 293.793 159.461Z" fill="#D2E5F7"/>
<path d="M254.047 66.8081H249.389V76.6258H254.047V66.8081Z" fill="#DFEDFA"/>
<path fill-rule="evenodd" clip-rule="evenodd" d="M266.041 80.4808C266.041 80.5839 259.883 80.6691 252.286 80.6691C244.687 80.6691 238.527 80.5839 238.527 80.4808C238.527 80.3777 244.687 80.2925 252.286 80.2925C259.886 80.2927 266.041 80.3777 266.041 80.4808Z" fill="#D2E5F7"/>
<path d="M254.047 86.6045H249.389V96.4229H254.047V86.6045Z" fill="#DFEDFA"/>
<path fill-rule="evenodd" clip-rule="evenodd" d="M266.041 100.278C266.041 100.381 259.883 100.467 252.286 100.467C244.687 100.467 238.527 100.381 238.527 100.278C238.527 100.175 244.687 100.089 252.286 100.089C259.886 100.089 266.041 100.175 266.041 100.278Z" fill="#D2E5F7"/>
<path d="M254.047 106.397H249.389V116.218H254.047V106.397Z" fill="#DFEDFA"/>
<path fill-rule="evenodd" clip-rule="evenodd" d="M266.041 120.074C266.041 120.176 259.883 120.262 252.286 120.262C244.687 120.262 238.527 120.177 238.527 120.074C238.527 119.972 244.687 119.886 252.286 119.886C259.886 119.886 266.041 119.972 266.041 120.074Z" fill="#D2E5F7"/>
<path d="M254.047 126.193H249.389V136.016H254.047V126.193Z" fill="#DFEDFA"/>
<path fill-rule="evenodd" clip-rule="evenodd" d="M266.041 139.87C266.041 139.974 259.883 140.059 252.286 140.059C244.687 140.059 238.527 139.974 238.527 139.87C238.527 139.768 244.687 139.682 252.286 139.682C259.886 139.682 266.041 139.768 266.041 139.87Z" fill="#D2E5F7"/>
<path d="M254.047 145.99H249.389V155.812H254.047V145.99Z" fill="#DFEDFA"/>
<path fill-rule="evenodd" clip-rule="evenodd" d="M266.041 159.663C266.041 159.765 259.883 159.851 252.286 159.851C244.687 159.851 238.527 159.765 238.527 159.663C238.527 159.561 244.687 159.475 252.286 159.475C259.886 159.475 266.041 159.561 266.041 159.663Z" fill="#D2E5F7"/>
<path d="M254.047 165.787H249.389V175.605H254.047V165.787Z" fill="#DFEDFA"/>
<path fill-rule="evenodd" clip-rule="evenodd" d="M242.702 214.134H162.768L162.42 87.8062H242.356L242.702 214.134Z" fill="#C3DFFA"/>
<path d="M242.356 87.8062H202.387V214.134H242.356V87.8062Z" fill="#BBDBFA"/>
<path d="M199.776 62.9351H171.547V87.8064H199.776V62.9351Z" fill="#C3DFFA"/>
<path d="M199.775 62.9351H193.047V87.8064H199.775V62.9351Z" fill="#BBDBFA"/>
<path d="M244.692 86.3521H155.76V87.8066H244.692V86.3521Z" fill="#A4D0FC"/>
<path d="M184.962 98.6519H178.195V112.919H184.962V98.6519Z" fill="#DFEDFA"/>
<path fill-rule="evenodd" clip-rule="evenodd" d="M202.386 118.52C202.386 118.67 193.44 118.79 182.405 118.79C171.367 118.79 162.42 118.67 162.42 118.52C162.42 118.367 171.367 118.246 182.405 118.246C193.44 118.246 202.386 118.367 202.386 118.52Z" fill="#DFEDFA"/>
<path d="M225.279 98.6519H218.512V112.919H225.279V98.6519Z" fill="#A4D0FC"/>
<path fill-rule="evenodd" clip-rule="evenodd" d="M242.699 118.52C242.699 118.67 233.751 118.79 222.716 118.79C211.678 118.79 202.73 118.67 202.73 118.52C202.73 118.367 211.678 118.246 222.716 118.246C233.751 118.246 242.699 118.367 242.699 118.52Z" fill="#D2E5F7"/>
<path d="M225.279 126.977H218.512V141.243H225.279V126.977Z" fill="#A4D0FC"/>
<path fill-rule="evenodd" clip-rule="evenodd" d="M242.699 146.843C242.699 146.993 233.751 147.115 222.716 147.115C211.678 147.115 202.73 146.993 202.73 146.843C202.73 146.694 211.678 146.569 222.716 146.569C233.751 146.569 242.699 146.694 242.699 146.843Z" fill="#D2E5F7"/>
<path d="M225.279 156.157H218.512V170.424H225.279V156.157Z" fill="#A4D0FC"/>
<path fill-rule="evenodd" clip-rule="evenodd" d="M242.699 176.025C242.699 176.174 233.751 176.294 222.716 176.294C211.678 176.294 202.73 176.174 202.73 176.025C202.73 175.875 211.678 175.75 222.716 175.75C233.751 175.75 242.699 175.875 242.699 176.025Z" fill="#D2E5F7"/>
<path d="M225.279 185.338H218.512V199.605H225.279V185.338Z" fill="#A4D0FC"/>
<path fill-rule="evenodd" clip-rule="evenodd" d="M242.699 205.203C242.699 205.355 233.751 205.475 222.716 205.475C211.678 205.475 202.73 205.355 202.73 205.203C202.73 205.056 211.678 204.932 222.716 204.932C233.751 204.932 242.699 205.056 242.699 205.203Z" fill="#D2E5F7"/>
<path d="M184.962 127.41H178.195V141.678H184.962V127.41Z" fill="#DFEDFA"/>
<path fill-rule="evenodd" clip-rule="evenodd" d="M202.386 147.278C202.386 147.427 193.44 147.548 182.405 147.548C171.367 147.548 162.42 147.427 162.42 147.278C162.42 147.126 171.367 147.004 182.405 147.004C193.44 147.004 202.386 147.126 202.386 147.278Z" fill="#DFEDFA"/>
<path d="M184.962 156.167H178.195V170.435H184.962V156.167Z" fill="#DFEDFA"/>
<path fill-rule="evenodd" clip-rule="evenodd" d="M202.386 176.031C202.386 176.185 193.44 176.305 182.405 176.305C171.367 176.305 162.42 176.185 162.42 176.031C162.42 175.882 171.367 175.761 182.405 175.761C193.44 175.761 202.386 175.882 202.386 176.031Z" fill="#DFEDFA"/>
<path d="M184.962 184.925H178.195V199.191H184.962V184.925Z" fill="#DFEDFA"/>
<path fill-rule="evenodd" clip-rule="evenodd" d="M202.386 204.789C202.386 204.942 193.44 205.063 182.405 205.063C171.367 205.063 162.42 204.942 162.42 204.789C162.42 204.641 171.367 204.519 182.405 204.519C193.44 204.519 202.386 204.641 202.386 204.789Z" fill="#DFEDFA"/>
<path d="M245.007 47.9951H224.998V88.0971H245.007V47.9951Z" fill="#A4D0FC"/>
<path fill-rule="evenodd" clip-rule="evenodd" d="M245.007 80.2638L235.705 71.4799C236.334 64.2652 236.434 57.2561 234.933 54.4323C232.905 50.6032 228.648 49.7563 225.325 49.7563C225.214 49.7563 225.103 49.7606 224.998 49.7606V47.9961H245.007L245.007 80.2638Z" fill="#87BEF5"/>
<path d="M248.112 44.4072H221.758V47.9955H248.112V44.4072Z" fill="#87BEF5"/>
<path fill-rule="evenodd" clip-rule="evenodd" d="M265.685 214.654H108.746V104.96L183.711 27.6899L265.685 104.96V214.654Z" fill="#87BEF5"/>
<path fill-rule="evenodd" clip-rule="evenodd" d="M184.43 26.9263L182.988 28.4555L264.63 105.411V214.654H266.732V104.508L184.43 26.9263Z" fill="#87BEF5"/>
<path fill-rule="evenodd" clip-rule="evenodd" d="M267.415 214.654H141.713L139.568 192.094H269.186L267.415 214.654Z" fill="#1D2567"/>
<path fill-rule="evenodd" clip-rule="evenodd" d="M108.942 122.477L183.911 45.2074L265.685 122.289V104.96L183.711 27.6899L108.746 104.96V214.654H108.942V122.477Z" fill="#1D2567"/>
<path fill-rule="evenodd" clip-rule="evenodd" d="M201.328 214.654H108.746V104.961L149.726 62.7217L201.328 105.231V214.654Z" fill="#87BEF5"/>
<path fill-rule="evenodd" clip-rule="evenodd" d="M214.513 192.095H201.326V116.141V111.678L205.451 115.294L209.146 111.08L162.949 70.5869L218.974 103.907L214.513 192.095Z" fill="#1D2567"/>
<path fill-rule="evenodd" clip-rule="evenodd" d="M213.372 214.654H201.328V192.094H214.515L213.372 214.654Z" fill="#1D2567"/>
<path fill-rule="evenodd" clip-rule="evenodd" d="M201.328 116.141H192.118L151.014 77.6675L117.619 115.294H108.746V107.52L149.509 66.2632L201.328 111.678V116.141Z" fill="#1D2567"/>
<path fill-rule="evenodd" clip-rule="evenodd" d="M201.327 214.654H108.745L107.166 192.094H202.625L201.327 214.654Z" fill="#1D2567"/>
<path fill-rule="evenodd" clip-rule="evenodd" d="M162.534 94.0996C162.752 93.7867 162.865 93.4629 162.865 93.1288C162.865 90.9527 158.018 89.1924 152.034 89.1924C146.052 89.1924 141.205 90.9527 141.205 93.1288C141.205 93.4631 141.319 93.7869 141.536 94.0996H137.791V97.5274H166.279V94.0996H162.534Z" fill="#EFF9FC"/>
<path fill-rule="evenodd" clip-rule="evenodd" d="M162.421 96.3117H161.922C160.433 93.3142 156.653 91.188 152.222 91.188C147.794 91.188 144.014 93.3142 142.521 96.3117H141.895V140.724H162.42L162.421 96.3117Z" fill="#EFF9FC"/>
<path fill-rule="evenodd" clip-rule="evenodd" d="M144.703 140.136V99.3554H144.906L145.12 98.8364C146.215 96.1975 149.063 94.4268 152.21 94.4268C155.354 94.4268 158.202 96.1975 159.297 98.8364L159.511 99.3554H159.607V140.136L144.703 140.136Z" fill="#EFF9FC"/>
<path fill-rule="evenodd" clip-rule="evenodd" d="M159.607 98.2459H159.512L159.298 97.8481C158.256 95.8989 155.621 94.5657 152.652 94.4419V129.846H159.608L159.607 98.2459Z" fill="#EFF9FC"/>
<path fill-rule="evenodd" clip-rule="evenodd" d="M145.468 139.169V130.449H158.843V139.169H145.468ZM145.796 99.2842C146.76 96.9586 149.338 95.3935 152.211 95.3935C155.081 95.3935 157.659 96.9586 158.623 99.2842L158.843 99.8246V129.002H145.468V100.077L145.796 99.2842ZM159.974 98.3879C158.779 95.5074 155.752 93.4595 152.211 93.4595C148.662 93.4595 145.639 95.5074 144.444 98.3879H143.943V141.103H160.368V98.3879H159.974Z" fill="#87BEF5"/>
<path d="M170.049 140.723H137.791V143.759H170.049V140.723Z" fill="#1D2567"/>
<path fill-rule="evenodd" clip-rule="evenodd" d="M170.512 131.908H136.594C136.399 131.908 136.242 132.064 136.242 132.259C136.242 132.452 136.399 132.608 136.59 132.608H138.525L140.396 141.67L141.081 141.53L139.239 132.608H145.001V142.241H145.701V132.608H151.804V142.241H152.507V132.608H159.751L159.257 141.58L159.957 141.62L160.452 132.608H166.906L164.57 141.512L165.245 141.691L167.631 132.608H170.512C170.707 132.608 170.865 132.452 170.865 132.26C170.865 132.064 170.707 131.908 170.512 131.908Z" fill="#1D2567"/>
<path fill-rule="evenodd" clip-rule="evenodd" d="M146.934 188.633H122.248V160.111C122.248 154.066 127.774 149.165 134.591 149.165C141.408 149.165 146.934 154.066 146.934 160.111L146.934 188.633Z" fill="#87BEF5"/>
<path fill-rule="evenodd" clip-rule="evenodd" d="M122.842 188.04V160.111C122.842 154.4 127.486 149.76 133.193 149.76C138.901 149.76 143.545 154.404 143.545 160.111V188.04H122.842Z" fill="#1C7C63"/>
<path fill-rule="evenodd" clip-rule="evenodd" d="M122.842 188.04V160.111C122.842 154.4 127.486 149.76 133.193 149.76C138.901 149.76 143.545 154.404 143.545 160.111V188.04H122.842Z" fill="#A4D0FC"/>
<path fill-rule="evenodd" clip-rule="evenodd" d="M134.534 149.855C134.093 149.799 133.648 149.76 133.193 149.76C127.486 149.76 122.842 154.404 122.842 160.111V188.04H125.523V160.111C125.523 154.858 129.456 150.512 134.534 149.855Z" fill="#BBDBFA"/>
<path fill-rule="evenodd" clip-rule="evenodd" d="M143.024 162.998H133.191V150.354H132.274V162.998H122.939V163.742H132.274V188.04H133.191V163.742H143.024V162.998Z" fill="#1D2567"/>
<path fill-rule="evenodd" clip-rule="evenodd" d="M142.952 187.446H123.44V160.111C123.44 154.731 127.813 150.353 133.194 150.353C138.574 150.353 142.952 154.731 142.952 160.111L142.952 187.446ZM133.194 149.165C127.148 149.165 122.248 154.066 122.248 160.111V188.633H144.139V160.111C144.139 154.066 139.242 149.165 133.194 149.165Z" fill="#FFF9F3"/>
<path fill-rule="evenodd" clip-rule="evenodd" d="M187.102 188.633H162.42V160.111C162.42 154.066 167.946 149.165 174.763 149.165C181.576 149.165 187.102 154.066 187.102 160.111V188.633Z" fill="#87BEF5"/>
<path fill-rule="evenodd" clip-rule="evenodd" d="M163.014 188.04V160.111C163.014 154.4 167.658 149.76 173.366 149.76C179.073 149.76 183.717 154.404 183.717 160.111V188.04H163.014Z" fill="#1C7C63"/>
<path fill-rule="evenodd" clip-rule="evenodd" d="M163.014 188.04V160.111C163.014 154.4 167.658 149.76 173.366 149.76C179.073 149.76 183.717 154.404 183.717 160.111V188.04H163.014Z" fill="#A4D0FC"/>
<path fill-rule="evenodd" clip-rule="evenodd" d="M174.705 149.855C174.265 149.799 173.819 149.76 173.366 149.76C167.658 149.76 163.014 154.404 163.014 160.111V188.04H165.695V160.111C165.695 154.858 169.628 150.512 174.705 149.855Z" fill="#BBDBFA"/>
<path fill-rule="evenodd" clip-rule="evenodd" d="M183.192 162.998H173.364V150.354H172.446V162.998H163.111V163.742H172.446V188.04H173.364V163.742H183.192V162.998Z" fill="#1D2567"/>
<path fill-rule="evenodd" clip-rule="evenodd" d="M183.123 187.446H163.607V160.111C163.607 154.731 167.985 150.353 173.366 150.353C178.746 150.353 183.123 154.731 183.123 160.111V187.446ZM173.366 149.165C167.32 149.165 162.42 154.066 162.42 160.111V188.633H184.315V160.111C184.315 154.066 179.41 149.165 173.366 149.165Z" fill="#FFF9F3"/>
<path fill-rule="evenodd" clip-rule="evenodd" d="M251.02 142.54H226.338V114.013C226.338 107.969 231.865 103.068 238.682 103.068C245.499 103.068 251.02 107.969 251.02 114.013V142.54Z" fill="#87BEF5"/>
<path fill-rule="evenodd" clip-rule="evenodd" d="M226.936 141.946V114.013C226.936 108.306 231.577 103.666 237.284 103.666C242.994 103.662 247.635 108.306 247.635 114.013V141.946H226.936Z" fill="#1C7C63"/>
<path fill-rule="evenodd" clip-rule="evenodd" d="M226.936 141.946V114.013C226.936 108.306 231.577 103.666 237.284 103.666C242.994 103.662 247.635 108.306 247.635 114.013V141.946H226.936Z" fill="#A4D0FC"/>
<path fill-rule="evenodd" clip-rule="evenodd" d="M238.624 103.758C238.186 103.705 237.738 103.666 237.284 103.666C231.577 103.662 226.936 108.306 226.936 114.013V141.946H229.613V114.013C229.613 108.762 233.55 104.419 238.624 103.758Z" fill="#BBDBFA"/>
<path fill-rule="evenodd" clip-rule="evenodd" d="M247.118 116.905H237.289V104.26H236.368V116.905H227.037V117.649H236.368V141.947H237.289V117.649H247.118V116.905Z" fill="#1D2567"/>
<path fill-rule="evenodd" clip-rule="evenodd" d="M247.042 141.349H227.529V114.013C227.529 108.637 231.907 104.259 237.287 104.259C242.667 104.259 247.042 108.637 247.042 114.013V141.349H247.042ZM237.287 103.068C231.242 103.068 226.338 107.969 226.338 114.013V142.54H248.233V114.013C248.233 107.969 243.329 103.068 237.287 103.068Z" fill="#FFF9F3"/>
<path fill-rule="evenodd" clip-rule="evenodd" d="M196.523 78.0445H182.641V61.9996C182.641 58.6002 185.749 55.8477 189.582 55.8477C193.415 55.8477 196.523 58.6036 196.523 62.003L196.523 78.0445Z" fill="#87BEF5"/>
<path fill-rule="evenodd" clip-rule="evenodd" d="M182.979 77.71V61.9998C182.979 58.7919 185.586 56.1821 188.796 56.1821C192.007 56.1786 194.616 58.7919 194.616 61.9998V77.71H182.979Z" fill="#1C7C63"/>
<path fill-rule="evenodd" clip-rule="evenodd" d="M182.979 77.71V61.9998C182.979 58.7919 185.586 56.1821 188.796 56.1821C192.007 56.1786 194.616 58.7919 194.616 61.9998V77.71H182.979Z" fill="#A4D0FC"/>
<path fill-rule="evenodd" clip-rule="evenodd" d="M189.553 56.2354C189.304 56.2036 189.055 56.1821 188.799 56.1821C185.588 56.1786 182.979 58.7919 182.979 61.9998L182.981 77.71H184.486V61.9998C184.485 59.0488 186.698 56.6091 189.553 56.2354Z" fill="#BBDBFA"/>
<path fill-rule="evenodd" clip-rule="evenodd" d="M194.327 63.6249H188.797V56.5161H188.282V63.6249H183.029V64.0442H188.282V77.7097H188.797V64.0442H194.327V63.6249Z" fill="#1D2567"/>
<path fill-rule="evenodd" clip-rule="evenodd" d="M194.283 77.3762H183.309V61.9996C183.309 58.9766 185.774 56.5161 188.796 56.5161C191.822 56.5161 194.283 58.9766 194.283 62.003V77.3762ZM188.796 55.8477C185.397 55.8477 182.641 58.6036 182.641 62.003V78.0445H194.951V61.9996C194.951 58.6002 192.196 55.8477 188.796 55.8477Z" fill="#FFF9F3"/>
<path d="M254.89 149.76H222.281V203.566H254.89V149.76Z" fill="#87BEF5"/>
<path d="M252.237 151.138H224.934V202.182H252.237V151.138Z" fill="#1D2567"/>
<path d="M248.517 153.446H227.625V183.325H248.517V153.446Z" fill="#A4D0FC"/>
<path fill-rule="evenodd" clip-rule="evenodd" d="M238.587 182.865V173.321H248.053V182.865H238.587ZM228.084 173.321H237.497V182.865H228.084V173.321ZM237.497 172.34H228.084V164.335H237.497V172.34ZM237.497 153.905V163.354H228.084V153.905H237.497ZM238.587 164.335H248.053V172.34H238.587V164.335ZM248.053 163.354H238.587V153.905H248.053V163.354ZM227.162 152.984V183.787H248.974V152.984H227.162Z" fill="#1D2567"/>
<path fill-rule="evenodd" clip-rule="evenodd" d="M228.622 201.837H224.934V156.078V151.138H252.237V156.078H248.972V152.984H227.16V183.787H228.622V201.837Z" fill="#1D2567"/>
<path fill-rule="evenodd" clip-rule="evenodd" d="M228.624 182.865H228.084V173.321H228.624V182.865ZM228.624 172.34H228.084V164.335H228.624V172.34ZM228.624 163.354H228.084V153.905H237.497V156.078H228.623L228.624 163.354ZM248.053 156.078H238.587V153.905H248.053V156.078Z" fill="#BBDBFA"/>
<path fill-rule="evenodd" clip-rule="evenodd" d="M228.623 183.787H227.162V152.984H248.974V156.078H248.053V153.905H238.587V156.078H237.497V153.905H228.084V163.354H228.623V164.335H228.084V172.34H228.623V173.321H228.084V182.865H228.623V183.787Z" fill="#1D2567"/>
<path d="M255.504 203.218H221.859V204.063H255.504V203.218Z" fill="#DFEDFA"/>
<path d="M254.2 204.063H223.018V206.904H254.2V204.063Z" fill="#BBDBFA"/>
<path d="M254.2 204.063H223.018V204.984H254.2V204.063Z" fill="#87BEF5"/>
<path d="M257.581 206.904H219.787V207.751H257.581V206.904Z" fill="#DFEDFA"/>
<path d="M256.114 207.751H221.08V210.592H256.114V207.751Z" fill="#BBDBFA"/>
<path d="M256.114 207.751H221.08V208.673H256.114V207.751Z" fill="#87BEF5"/>
<path d="M259.036 210.592H217.1V211.545H259.036V210.592Z" fill="#DFEDFA"/>
<path d="M257.413 211.545H218.535V214.742H257.413V211.545Z" fill="#BBDBFA"/>
<path d="M257.413 211.545H218.535V212.581H257.413V211.545Z" fill="#87BEF5"/>
<path fill-rule="evenodd" clip-rule="evenodd" d="M102.799 113.542L108.745 107.521V113.542H102.799Z" fill="#1D2567"/>
<path fill-rule="evenodd" clip-rule="evenodd" d="M201.328 111.678L205.454 115.294H201.328V111.678Z" fill="#1D2567"/>
<path fill-rule="evenodd" clip-rule="evenodd" d="M266.734 108.48L272.169 113.608H266.734V108.48Z" fill="#1D2567"/>
<path fill-rule="evenodd" clip-rule="evenodd" d="M272.166 113.609L276.013 109.534L184.36 23.0078L98.8086 109.601L102.798 113.542L149.507 66.2636L205.451 115.294L209.146 111.08L153.454 62.2663L184.499 30.8453L272.166 113.609Z" fill="#4F8ECC"/>
<path fill-rule="evenodd" clip-rule="evenodd" d="M83.6707 143.018C83.8375 143.242 83.2259 143.718 83.4853 143.804C83.5565 145.653 87.9807 148.077 88.784 147.26C89.8973 146.126 88.4353 140.009 90.5299 139.351C94.7761 138.025 97.8484 144.828 99.6868 144.067C103.428 142.531 106.689 134.521 101.127 130.134C98.4211 126.816 101.113 116.019 95.0785 114.021C86.9953 110.522 80.2388 138.523 83.6707 143.018Z" fill="#284191"/>
<path fill-rule="evenodd" clip-rule="evenodd" d="M99.0762 160.772C99.6878 161.305 100.356 161.525 101.135 161.362C100.406 161.917 99.3895 161.495 99.0762 160.772Z" fill="#F58B67"/>
<path fill-rule="evenodd" clip-rule="evenodd" d="M101.83 213.804C101.713 212.975 101.972 211.557 102.619 209.33C101.339 209.334 100.262 208.768 98.9534 208.789C98.5977 210.88 98.0426 214.312 98.0426 214.312L97.9824 217.026L107.096 217.092C107.096 217.092 107.018 217.131 104.333 215.436C104.135 215.311 101.94 214.6 101.83 213.804Z" fill="white"/>
<path fill-rule="evenodd" clip-rule="evenodd" d="M97.9392 217.722H107.349C107.693 217.69 107.783 217.41 107.658 217.231C107.409 216.873 105.574 216.008 104.34 215.436C102.178 215.66 98.3733 214.77 98.0315 214.27C97.4411 215.927 97.7434 217.679 97.9392 217.722Z" fill="#284191"/>
<path fill-rule="evenodd" clip-rule="evenodd" d="M90.474 213.805C90.3572 212.976 90.1612 211.94 90.449 209.188C89.1655 209.188 87.9493 208.95 86.6409 208.967C86.6409 211.12 86.6872 214.313 86.6872 214.313L86.627 217.026L95.7412 217.093C95.7412 217.093 95.6629 217.131 92.9776 215.436C92.7787 215.312 90.5848 214.6 90.474 213.805Z" fill="white"/>
<path fill-rule="evenodd" clip-rule="evenodd" d="M86.5814 217.722H95.9941C96.3421 217.69 96.4238 217.41 96.3036 217.231C96.0579 216.873 94.2195 216.008 92.9858 215.436C90.8237 215.66 87.0221 214.77 86.6811 214.27C86.0832 215.927 86.389 217.679 86.5814 217.722Z" fill="#284191"/>
<path fill-rule="evenodd" clip-rule="evenodd" d="M97.0977 135.094L100.529 131.478C100.529 131.478 104.195 133.494 108.474 135.424C109.654 133.376 111.571 126.641 111.674 126.326C111.777 125.998 109.426 121.954 109.953 121.854C110.479 121.752 111.162 124.013 111.717 123.785C112.275 123.555 113.7 118.309 114.039 118.598C114.664 119.131 113.285 121.862 113.615 122.058C113.943 122.257 114.782 119.036 115.418 119.174C116.059 119.309 114.345 122.104 114.529 122.373C114.721 122.645 116.51 120.021 116.88 120.628C117.083 120.955 115.23 122.91 115.61 123.132C115.991 123.348 117.662 122.115 117.862 122.516C118.06 122.914 116.3 123.331 115.813 124.341C115.326 125.348 114.44 125.742 114.142 127.647C113.85 129.555 113.043 139.752 110.966 140.571C109.149 141.285 97.0977 135.094 97.0977 135.094Z" fill="white"/>
<path fill-rule="evenodd" clip-rule="evenodd" d="M99.3127 154.603L96.5353 156.153L90.8809 164.794L100.987 188.584C100.987 188.584 99.8497 192.161 99.4795 193.946C99.092 195.817 98.1392 211.87 98.1392 211.87L102.449 211.94C102.449 211.94 106.545 194.854 107.239 189.31C108.082 182.574 102.954 166.536 102.954 166.536C101.998 163.265 99.9383 156.534 99.9383 156.534C99.9383 156.534 99.4329 154.887 99.3127 154.603Z" fill="#3B5BB3"/>
<path fill-rule="evenodd" clip-rule="evenodd" d="M89.6361 151.359C89.6361 151.359 89.9246 153.389 88.7725 155.711C88.0753 157.124 86.863 158.233 85.9951 159.961C84.352 163.24 83.4634 167.891 84.0785 170.882C84.0785 170.882 87.4709 183.837 87.3355 188.574C87.2857 190.319 86.6885 193.467 86.3045 195.59C85.9669 197.47 85.8492 211.652 85.8492 211.652L90.6679 211.507L94.3517 188.63L95.9126 168.3L99.3127 154.603L89.6361 151.359Z" fill="#4567C6"/>
<path fill-rule="evenodd" clip-rule="evenodd" d="M100.846 137.367C102.378 138.078 105.159 139.141 105.159 139.141L106.738 134.143C97.8012 129.057 98.5056 129.877 91.8022 129.977C86.4398 130.056 84.1959 129.032 79.5801 141.488C79.5801 141.488 83.0937 143.064 84.3488 143.572C84.8933 142.033 85.871 138.961 86.4398 140.71C87.3039 143.356 87.9336 146.027 88.3565 148.775C88.6236 150.404 89.2068 152.487 88.901 154.147C88.901 154.147 92.5496 154.902 95.334 155.023H95.3588C96.7061 154.992 98.0863 154.87 99.3133 154.604C99.3133 154.604 99.8606 143.053 100.153 142.57C100.476 142.036 101.841 140.312 100.678 137.729C100.472 137.275 100.529 137.221 100.846 137.367Z" fill="#61A0E0"/>
<path fill-rule="evenodd" clip-rule="evenodd" d="M92.461 125.048C92.461 125.048 92.0485 128.349 91.8105 129.489C91.5579 130.692 91.181 134.466 93.6627 135.077C96.1489 135.692 95.3807 130.97 95.4229 129.752C95.4624 128.533 96.166 124.287 96.166 124.287L92.461 125.048Z" fill="white"/>
<path fill-rule="evenodd" clip-rule="evenodd" d="M92.1094 127.602C92.1344 127.615 92.1592 127.629 92.1876 127.647C93.5569 128.433 94.7553 128.309 95.6513 127.697C95.8112 126.641 95.9504 125.785 95.9504 125.785L92.2451 126.546C92.2451 126.546 92.1916 126.99 92.1094 127.602Z" fill="#F37960"/>
<path fill-rule="evenodd" clip-rule="evenodd" d="M93.6146 118.021C93.6146 118.021 92.1247 118.266 91.1291 119.611C90.1336 120.955 89.2555 125.033 92.1283 127.142C95.0054 129.244 97.5019 126.666 97.7047 124.017C97.9073 121.368 97.5621 117.79 93.6146 118.021Z" fill="white"/>
<path fill-rule="evenodd" clip-rule="evenodd" d="M89.7532 124.571C87.9826 122.491 87.8933 123.58 87.6195 120.635C87.5557 112.523 97.0856 112.448 96.6201 116.794C97.4129 117.729 96.7514 118.171 96.0616 118.764C90.3048 123.729 90.1905 117.754 89.7532 124.571Z" fill="#284191"/>
<path fill-rule="evenodd" clip-rule="evenodd" d="M96.5585 116.059C95.9641 116.111 95.6333 115.938 95.5586 115.529C95.9786 114.781 96.5686 114.326 97.319 114.167C96.9881 114.437 96.7362 115.069 96.5585 116.059Z" fill="#284191"/>
<path fill-rule="evenodd" clip-rule="evenodd" d="M96.7394 115.856C97.1163 115.966 97.2728 115.842 97.2016 115.472C96.736 114.736 96.2488 114.256 95.7402 114.029C96.0211 114.317 96.3519 114.924 96.7394 115.856Z" fill="#284191"/>
<path fill-rule="evenodd" clip-rule="evenodd" d="M97.9372 123.555C98.2285 122.114 97.9336 120.66 97.6419 119.223C97.2115 117.076 95.6857 118.025 96.3722 119.077C97.7199 121.129 97.3503 120.454 97.9372 123.555Z" fill="#284191"/>
<path fill-rule="evenodd" clip-rule="evenodd" d="M96.8701 117.712C97.5454 117.57 97.9475 117.726 98.0901 118.186C97.7094 119.106 97.0945 119.707 96.248 119.996C96.5893 119.636 96.7988 118.875 96.8701 117.712Z" fill="#284191"/>
<path fill-rule="evenodd" clip-rule="evenodd" d="M95.9982 118.277C96.6063 118.341 96.8977 118.612 96.8729 119.092C96.2682 119.852 95.5679 120.244 94.7715 120.262C95.1693 120.024 95.5782 119.362 95.9982 118.277Z" fill="#284191"/>
<path fill-rule="evenodd" clip-rule="evenodd" d="M98.1111 121.154C98.1361 121.727 97.8905 122.203 97.5596 122.221C97.2288 122.24 96.9376 121.787 96.9085 121.216C96.8801 120.643 97.1257 120.162 97.4564 120.144C97.7906 120.13 98.082 120.583 98.1111 121.154Z" fill="white"/>
<path fill-rule="evenodd" clip-rule="evenodd" d="M90.5949 122.122C90.6302 122.708 90.3424 123.202 89.948 123.227C89.5528 123.256 89.2041 122.805 89.1689 122.218C89.1337 121.627 89.4215 121.133 89.816 121.108C90.2074 121.079 90.5597 121.532 90.5949 122.122Z" fill="white"/>
<path fill-rule="evenodd" clip-rule="evenodd" d="M95.7691 129.871C95.776 132.726 95.5913 134.051 94.9797 134.805C94.8482 134.966 94.7056 135.091 94.5563 135.182C94.5672 135.229 94.5743 135.279 94.5743 135.329C94.5743 135.51 94.4927 135.669 94.3612 135.784C94.3964 135.843 94.4214 135.915 94.4214 135.99C94.4214 136.153 94.3183 136.296 94.1688 136.366C94.1972 136.402 94.2117 136.448 94.2117 136.491C94.2117 136.622 94.0941 136.729 93.9446 136.729C93.7993 136.729 93.6816 136.622 93.6816 136.491C93.6816 136.448 93.6963 136.402 93.7211 136.366C93.5753 136.296 93.4722 136.153 93.4722 135.99C93.4722 135.947 93.4826 135.904 93.4937 135.865C93.2943 135.755 93.1664 135.555 93.1664 135.329C93.1664 135.26 93.1768 135.193 93.2016 135.129C93.0598 135.043 92.9172 134.937 92.7857 134.803C91.9816 133.999 91.2247 132.345 91.3278 129.98H91.7223C91.5375 132.218 92.2771 133.82 93.0205 134.567C93.145 134.688 93.2693 134.787 93.394 134.862C93.5221 134.76 93.6888 134.695 93.8701 134.695C94.0729 134.695 94.254 134.773 94.3821 134.898C94.5032 134.827 94.6174 134.728 94.7238 134.595C95.2823 133.903 95.4205 132.438 95.4171 129.876L95.7691 129.871Z" fill="#4F8ECC"/>
<path fill-rule="evenodd" clip-rule="evenodd" d="M106.29 133.885C105.845 135.287 105.5 136.389 105.226 137.235C104.956 138.089 104.767 138.664 104.668 138.949L104.43 138.857C104.529 138.573 104.714 138.011 104.985 137.16C105.258 136.315 105.614 135.162 106.058 133.757L106.29 133.885Z" fill="#4F8ECC"/>
<path fill-rule="evenodd" clip-rule="evenodd" d="M79.8038 140.887C81.0418 141.332 82.0726 141.709 82.887 142.028C83.6946 142.345 84.2668 142.586 84.6293 142.769L84.5477 143.01C84.192 142.833 83.5984 142.577 82.7979 142.267C82.0047 141.954 80.9775 141.578 79.7188 141.125L79.8038 140.887Z" fill="#4F8ECC"/>
<path fill-rule="evenodd" clip-rule="evenodd" d="M79.9631 140.485C81.2045 140.926 82.2319 141.307 83.0465 141.627C83.8538 141.944 84.4158 142.178 84.7783 142.359L84.693 142.602C84.3374 142.423 83.7577 142.174 82.9536 141.861C82.1649 141.552 81.1296 141.172 79.8711 140.724L79.9631 140.485Z" fill="#4F8ECC"/>
<path fill-rule="evenodd" clip-rule="evenodd" d="M105.879 133.651C105.438 135.055 105.093 136.14 104.823 136.986C104.549 137.84 104.335 138.494 104.236 138.782L103.994 138.687C104.097 138.402 104.307 137.758 104.581 136.911C104.851 136.066 105.211 134.928 105.648 133.526L105.879 133.651Z" fill="#61A0E0"/>
<path fill-rule="evenodd" clip-rule="evenodd" d="M117.014 115.497L112.043 122.74L114.919 124.713L119.891 117.474L117.014 115.497Z" fill="#FBBFA8"/>
<path fill-rule="evenodd" clip-rule="evenodd" d="M153.123 66.459C139.576 57.1595 121.052 60.6018 111.749 74.1539C103.353 86.3837 105.341 102.663 115.771 112.559L115.643 112.747C115.117 113.513 115.312 114.571 116.08 115.094L121.056 118.508C121.82 119.036 122.879 118.839 123.406 118.075L123.534 117.883C136.517 124.059 152.423 120.067 160.815 107.833C170.118 94.2848 166.676 75.7612 153.123 66.459ZM150.773 69.8833C162.433 77.8883 165.395 93.826 157.395 105.483C149.39 117.142 133.452 120.105 121.795 112.104C110.135 104.1 107.173 88.1614 115.173 76.5045C123.178 64.8439 139.117 61.8825 150.773 69.8833Z" fill="#FC9774"/>
<path fill-rule="evenodd" clip-rule="evenodd" d="M117.245 121.324L114.373 119.35C113.928 119.045 113.316 119.16 113.01 119.604L108.477 126.206L108.469 126.217L98.6799 140.478L98.6763 140.485L95.9661 144.431L86.1734 158.699C85.8709 159.139 85.9844 159.755 86.4258 160.058L89.3055 162.034C89.7471 162.336 90.3588 162.222 90.6645 161.778L95.1979 155.174L95.202 155.167L104.995 140.9L107.705 136.95H107.709L117.501 122.683C117.804 122.243 117.69 121.627 117.245 121.324Z" fill="#F57A44"/>
<g opacity="0.4">
<path fill-rule="evenodd" clip-rule="evenodd" d="M115.176 76.5046C107.175 88.1614 110.137 104.1 121.797 112.104C133.454 120.105 149.392 117.14 157.397 105.483C165.397 93.8261 162.435 77.8883 150.775 69.8833C139.119 61.8827 123.181 64.8441 115.176 76.5046Z" fill="#DFEDFA"/>
</g>
<g opacity="0.4">
<path fill-rule="evenodd" clip-rule="evenodd" d="M151.329 111.716L148.036 68.2442C147.353 67.8885 146.656 67.5682 145.952 67.2804L149.416 112.983C150.07 112.591 150.71 112.172 151.329 111.716ZM139.118 116.442L135.252 65.4102C131.191 65.577 127.197 66.7041 123.635 68.7272L127.134 114.913C131.01 116.401 135.124 116.888 139.118 116.442ZM147.717 113.91C146.34 114.594 144.914 115.153 143.449 115.575L139.662 65.6093C141.166 65.808 142.663 66.1421 144.132 66.6155L147.717 113.91Z" fill="#FEFEFE"/>
</g>
<path fill-rule="evenodd" clip-rule="evenodd" d="M94.1383 157.423C94.202 157.429 94.4829 157.395 94.7181 157.398C95.0377 157.404 95.3221 157.454 95.3221 157.454C95.3221 157.454 95.4466 157.341 95.6889 157.234C95.792 157.188 95.9552 157.171 96.0653 157.117C96.1828 157.064 96.279 156.964 96.3892 156.915C96.6736 156.793 96.933 156.765 97.0223 156.911C97.0936 157.035 95.5111 158.005 95.5111 158.005C94.0421 158.013 92.5096 158.761 89.1066 156.544C87.1685 155.698 77.7487 151.039 77.5563 150.03C77.4497 149.457 78.8973 145.051 80.0777 141.709C80.9883 142.114 82.9255 142.974 84.0106 143.43C83.015 145.539 81.8449 148.333 81.966 148.671C81.998 148.764 82.1155 148.924 88.484 153.095C88.6444 153.198 88.8113 153.306 88.9753 153.419C89.4262 153.71 89.9065 154.023 90.4151 154.355L92.2321 154.166C92.2321 154.166 95.1092 154.364 95.1978 154.688C95.2337 154.842 94.995 154.912 94.7005 154.958H94.6935C94.6506 154.966 94.6042 154.969 94.5613 154.973H94.5579C94.2415 155.012 93.9073 155.019 93.8256 155.048C93.7365 155.076 93.5518 155.15 93.3919 155.257C95.1874 155.993 95.049 155.73 95.6426 155.692C95.7921 155.683 95.9518 155.728 96.0944 155.716C96.3325 155.692 96.5283 155.549 96.7131 155.538C96.9864 155.524 97.2072 155.653 97.257 155.703C97.3212 155.766 97.2002 155.858 96.9724 155.961C95.5858 156.563 94.4373 156.331 94.0706 156.419C93.8215 156.48 94.2767 156.573 94.9813 156.498C95.1556 156.48 95.3868 156.544 95.618 156.488C95.7743 156.455 95.9168 156.356 96.0656 156.317C96.2082 156.281 96.3508 156.285 96.4712 156.264C96.6241 156.235 96.8413 156.115 96.9658 156.104C97.4244 156.05 97.6479 156.129 97.6979 156.175C97.8053 156.267 95.7176 157.071 95.7176 157.071C95.7176 157.071 94.2771 157.277 93.9539 157.277C93.9535 157.277 93.761 157.366 94.1383 157.423Z" fill="white"/>
<path fill-rule="evenodd" clip-rule="evenodd" d="M93.3309 122.16C91.9441 121.578 92.1254 121.653 90.8633 121.994C91.389 121.467 92.122 121.392 92.8582 121.666C93.2028 121.791 93.2673 121.791 93.3309 122.16Z" fill="#125AA3"/>
<path fill-rule="evenodd" clip-rule="evenodd" d="M92.2535 122.84C92.0189 122.847 91.8195 122.666 91.8127 122.432C91.8051 122.197 91.9871 122.002 92.2217 121.995C92.4562 121.984 92.652 122.169 92.6624 122.399C92.6693 122.634 92.4846 122.831 92.2535 122.84Z" fill="#125AA3"/>
<path fill-rule="evenodd" clip-rule="evenodd" d="M92.2433 122.567C92.1609 122.57 92.0903 122.507 92.0861 122.421C92.0827 122.339 92.1504 122.269 92.232 122.265C92.3137 122.265 92.3815 122.328 92.3851 122.41C92.3887 122.492 92.3249 122.564 92.2433 122.567Z" fill="#BBDBFA"/>
<path fill-rule="evenodd" clip-rule="evenodd" d="M92.2694 122.194C92.248 122.194 92.2266 122.175 92.2266 122.15C92.2266 122.129 92.2412 122.111 92.2662 122.109C92.4115 122.104 92.5324 122.219 92.536 122.365C92.5395 122.385 92.5222 122.403 92.4972 122.403C92.4758 122.408 92.4577 122.39 92.4577 122.365C92.4543 122.265 92.3691 122.186 92.2694 122.194Z" fill="#BBDBFA"/>
<path fill-rule="evenodd" clip-rule="evenodd" d="M94.8222 121.709C96.0593 120.853 95.8995 120.966 97.2009 121.048C96.5824 120.635 95.8496 120.713 95.1811 121.129C94.8719 121.322 94.8076 121.336 94.8222 121.709Z" fill="#125AA3"/>
<path fill-rule="evenodd" clip-rule="evenodd" d="M96.0107 122.154C96.2419 122.115 96.3948 121.898 96.3594 121.667C96.3199 121.435 96.1 121.279 95.8689 121.318C95.6379 121.358 95.4849 121.578 95.5235 121.805C95.5596 122.036 95.7797 122.194 96.0107 122.154Z" fill="#125AA3"/>
<path fill-rule="evenodd" clip-rule="evenodd" d="M95.9638 121.884C96.0462 121.87 96.0994 121.792 96.0883 121.712C96.0744 121.628 95.9961 121.578 95.9145 121.588C95.8321 121.603 95.7789 121.682 95.7934 121.762C95.8041 121.841 95.8822 121.898 95.9638 121.884Z" fill="#BBDBFA"/>
<path fill-rule="evenodd" clip-rule="evenodd" d="M95.8609 121.524C95.8823 121.521 95.8968 121.497 95.8934 121.479C95.8934 121.454 95.8684 121.438 95.847 121.443C95.7044 121.468 95.6047 121.603 95.634 121.746C95.6376 121.766 95.6548 121.782 95.6798 121.778C95.7012 121.773 95.7192 121.753 95.7123 121.732C95.6976 121.635 95.7653 121.538 95.8609 121.524Z" fill="#BBDBFA"/>
<path fill-rule="evenodd" clip-rule="evenodd" d="M95.295 125.785C94.0432 126.062 92.294 125.642 94.1285 125.593C94.6549 125.579 95.0888 125.461 95.5122 125.348C96.1841 125.169 95.6403 125.706 95.295 125.785Z" fill="#FC9774"/>
<path fill-rule="evenodd" clip-rule="evenodd" d="M331.783 191.639C331.79 192.187 331.822 192.649 331.865 192.97C331.825 192.649 331.79 192.187 331.783 191.639Z" fill="#ECECE9"/>
<path fill-rule="evenodd" clip-rule="evenodd" d="M315.033 150.944C314.629 150.422 314.078 150.026 313.519 149.682C313.372 149.589 313.159 149.653 313.079 149.802C312.647 150.602 312.248 151.424 311.758 152.188C311.598 152.441 311.367 152.775 311.161 152.924C311.149 152.932 311.094 152.957 311.072 152.971C311.069 152.968 311.065 152.964 311.061 152.957C311.022 152.896 310.997 152.833 310.975 152.765C310.592 151.587 311.058 150.33 310.756 149.141C310.596 148.515 310.197 147.862 309.746 147.405C309.255 146.909 308.598 146.678 308.291 146.005C308.245 145.903 308.16 145.855 308.071 145.849H308.011C307.9 145.858 307.79 145.919 307.729 146.008C307.018 147.026 306.029 148.078 305.841 149.351C305.674 150.482 306.286 151.424 306.933 152.285C307.25 152.702 307.563 153.121 307.808 153.583C307.942 153.839 308.175 154.297 307.928 154.546C307.674 154.807 307.281 154.34 307.079 154.131C306.666 153.703 306.31 153.214 305.952 152.736C305.354 151.95 304.412 150.756 303.292 150.973C302.797 151.069 302.595 151.578 302.57 152.025C302.527 152.734 302.876 153.49 303.22 154.088C304.009 155.432 305.61 155.824 306.641 156.912C306.879 157.161 307.527 158.014 307.156 158.366C307.026 158.488 306.723 158.448 306.571 158.423C306.193 158.366 305.778 158.228 305.476 157.992C304.316 157.101 303.896 155.543 302.681 154.693C302.147 154.322 301.322 154.093 300.682 154.248C300.137 154.376 299.888 154.888 299.863 155.405C299.835 156.026 300.12 156.674 300.433 157.197C300.798 157.797 301.297 158.302 301.911 158.654C303.134 159.348 304.69 159.437 305.503 160.72C305.617 160.898 305.735 161.125 305.68 161.342C305.642 161.506 305.404 161.56 305.265 161.587C304.636 161.726 303.81 161.496 303.259 161.204C302.592 160.848 302.108 160.205 301.595 159.668C301.054 159.099 300.45 158.637 299.693 158.404C299.14 158.238 298.465 158.266 298.111 158.778C297.787 159.251 297.851 159.888 297.982 160.411C298.161 161.108 298.54 161.751 299.002 162.288C299.505 162.872 300.297 163.202 301.009 163.44C301.745 163.685 302.511 163.839 303.242 164.113C303.433 164.184 303.583 164.238 303.796 164.251C304.02 164.265 304.248 164.255 304.471 164.315C304.656 164.362 304.532 164.557 304.471 164.695C304.316 165.019 303.832 165.005 303.53 165.03C303.238 165.051 302.954 165.126 302.665 165.126C302.334 165.126 301.999 165.069 301.673 165.017C301.025 164.917 300.339 164.802 299.697 164.997C299.074 165.187 298.639 165.774 298.526 166.399C298.291 167.715 299.763 168.518 300.856 168.687C301.556 168.792 302.189 168.639 302.805 168.291C303.562 167.865 304.158 167.242 305.033 167.135C305.091 167.488 304.966 167.768 304.656 168.031C304.23 168.39 303.636 168.587 303.118 168.778C302.099 169.159 300.61 169.493 300.066 170.545C299.998 170.674 300.012 170.834 300.12 170.94C300.603 171.399 301.158 171.762 301.836 171.816C302.402 171.861 302.95 171.598 303.405 171.297C304.223 170.756 304.923 169.913 305.841 169.532C305.716 169.764 305.503 169.924 305.247 170.123C304.789 170.477 304.554 170.969 304.425 171.524C304.233 172.367 304.525 173.277 305.514 173.281C306.054 173.287 306.594 173.014 307.042 172.744C307.558 172.434 307.971 171.986 308.29 171.485C308.689 170.862 308.91 170.14 309.031 169.404C309.856 171.015 311.648 172.695 313.344 171.304C314.789 170.115 312.409 169.202 311.466 168.266C311.652 168.345 311.833 168.441 312.003 168.526C312.495 168.778 312.971 169.055 313.483 169.265C314.436 169.653 315.51 169.617 316.079 168.633C316.574 167.786 315.553 167.392 314.923 167.203C314.411 167.047 313.455 166.882 313.084 166.368C314.343 166.506 315.752 166.662 316.837 165.933C317.334 165.604 317.925 164.967 317.986 164.344C318.035 163.839 317.483 163.658 317.089 163.619C316.007 163.511 314.962 163.984 313.881 163.953C313.621 163.946 313.366 163.918 313.113 163.86C313.018 163.839 312.921 163.814 312.832 163.771C312.796 163.757 312.76 163.728 312.735 163.71C312.744 163.694 312.75 163.676 312.769 163.66C312.864 163.547 312.989 163.465 313.113 163.384C313.387 163.202 313.679 163.096 314.009 163.06C314.636 162.996 315.261 163.074 315.888 162.965C316.591 162.844 317.161 162.434 317.626 161.909C318.039 161.446 318.437 160.855 318.503 160.219C318.573 159.564 318.174 159.12 317.587 158.896C315.947 158.267 314.991 159.96 313.82 160.727C313.512 160.934 313.142 161.069 312.789 161.175C312.647 161.218 312.223 161.363 312.082 161.254C311.999 161.186 312.281 160.742 312.331 160.656C312.565 160.276 312.868 160.01 313.256 159.789C314.23 159.227 315.424 159.056 316.192 158.167C316.697 157.588 317.096 156.606 316.602 155.899C316.079 155.147 314.908 155.351 314.247 155.788C313.419 156.34 312.998 157.449 311.999 157.716C311.915 157.243 312.099 156.805 312.417 156.386C312.885 155.767 313.483 155.262 314.038 154.729C314.57 154.218 315.116 153.661 315.39 152.969C315.674 152.253 315.492 151.535 315.033 150.944Z" fill="#8BBAE9"/>
<path fill-rule="evenodd" clip-rule="evenodd" d="M339.723 173.734C339.881 173.095 339.852 172.415 339.777 171.765C339.759 171.595 339.578 171.462 339.411 171.495C338.514 171.65 337.623 171.847 336.719 171.932C336.42 171.963 336.015 171.988 335.774 171.917C335.754 171.913 335.705 171.889 335.68 171.878C335.68 171.874 335.68 171.867 335.685 171.86C335.705 171.792 335.741 171.736 335.784 171.675C336.47 170.644 337.747 170.231 338.489 169.261C338.885 168.745 339.15 168.03 339.234 167.39C339.319 166.697 339.095 166.04 339.429 165.381C339.553 165.143 339.297 164.93 339.081 164.944C337.839 165.018 336.402 164.891 335.287 165.53C334.293 166.096 333.931 167.159 333.661 168.201C333.529 168.711 333.391 169.214 333.181 169.69C333.06 169.954 332.846 170.421 332.499 170.381C332.135 170.346 332.259 169.748 332.299 169.46C332.378 168.865 332.544 168.287 332.694 167.71C332.943 166.753 333.299 165.274 332.434 164.528C332.05 164.2 331.529 164.357 331.16 164.613C330.582 165.018 330.197 165.761 329.945 166.402C329.375 167.855 330.059 169.353 329.843 170.836C329.793 171.178 329.525 172.216 329.017 172.141C328.838 172.116 328.686 171.853 328.609 171.718C328.42 171.384 328.274 170.972 328.271 170.587C328.256 169.125 329.216 167.832 329.132 166.352C329.096 165.702 328.763 164.916 328.249 164.506C327.812 164.158 327.252 164.279 326.83 164.581C326.325 164.944 325.995 165.562 325.777 166.135C325.528 166.797 325.442 167.497 325.546 168.197C325.755 169.591 326.649 170.864 326.148 172.302C326.076 172.497 325.97 172.732 325.77 172.823C325.614 172.891 325.428 172.743 325.315 172.649C324.817 172.241 324.49 171.451 324.38 170.836C324.244 170.089 324.447 169.311 324.554 168.575C324.665 167.8 324.656 167.042 324.369 166.303C324.16 165.766 323.718 165.254 323.095 165.293C322.524 165.328 322.066 165.773 321.734 166.203C321.296 166.772 321.027 167.465 320.892 168.163C320.746 168.92 320.977 169.745 321.23 170.452C321.489 171.181 321.847 171.878 322.082 172.622C322.146 172.818 322.196 172.966 322.318 173.145C322.442 173.33 322.594 173.503 322.683 173.709C322.762 173.888 322.531 173.913 322.384 173.944C322.037 174.03 321.747 173.639 321.539 173.414C321.343 173.201 321.108 173.02 320.931 172.796C320.721 172.536 320.564 172.237 320.401 171.949C320.077 171.376 319.744 170.768 319.191 170.385C318.661 170.014 317.93 170.032 317.372 170.331C316.19 170.963 316.472 172.614 317.015 173.578C317.363 174.189 317.875 174.595 318.53 174.866C319.334 175.195 320.191 175.279 320.817 175.904C320.574 176.164 320.28 176.239 319.882 176.156C319.331 176.045 318.811 175.698 318.338 175.413C317.413 174.847 316.228 173.888 315.063 174.108C314.921 174.137 314.803 174.246 314.789 174.393C314.726 175.057 314.787 175.719 315.163 176.284C315.479 176.757 316.024 177.024 316.541 177.194C317.471 177.501 318.566 177.536 319.434 178.016C319.173 178.063 318.917 177.995 318.6 177.914C318.039 177.775 317.506 177.9 316.994 178.141C316.212 178.511 315.678 179.303 316.287 180.082C316.616 180.51 317.164 180.764 317.655 180.95C318.217 181.163 318.822 181.21 319.42 181.149C320.152 181.074 320.856 180.8 321.507 180.445C320.757 182.087 320.546 184.538 322.687 185.007C324.512 185.405 323.754 182.973 323.906 181.654C323.964 181.846 324 182.045 324.039 182.234C324.144 182.778 324.219 183.321 324.372 183.856C324.656 184.847 325.351 185.666 326.477 185.505C327.449 185.369 327.125 184.321 326.887 183.709C326.688 183.215 326.225 182.358 326.4 181.747C327.072 182.823 327.818 184.026 329.066 184.428C329.632 184.612 330.499 184.683 331.022 184.345C331.454 184.069 331.254 183.528 331.036 183.194C330.457 182.28 329.433 181.749 328.792 180.883C328.636 180.673 328.5 180.451 328.387 180.217C328.345 180.132 328.305 180.039 328.28 179.943C328.273 179.908 328.276 179.862 328.276 179.833C328.291 179.826 328.309 179.826 328.334 179.826C328.479 179.83 328.622 179.876 328.763 179.923C329.077 180.029 329.34 180.193 329.571 180.426C330.008 180.883 330.335 181.42 330.808 181.846C331.342 182.322 332.015 182.519 332.715 182.557C333.338 182.596 334.044 182.543 334.585 182.198C335.143 181.849 335.242 181.259 335.058 180.661C334.539 178.987 332.612 179.282 331.284 178.837C330.933 178.72 330.598 178.514 330.296 178.307C330.172 178.219 329.798 177.977 329.798 177.799C329.802 177.691 330.325 177.632 330.424 177.625C330.869 177.571 331.264 177.642 331.676 177.809C332.721 178.232 333.593 179.061 334.763 179.118C335.536 179.157 336.555 178.862 336.8 178.033C337.063 177.159 336.186 176.366 335.432 176.117C334.489 175.804 333.355 176.164 332.53 175.544C332.846 175.181 333.302 175.056 333.831 175.046C334.603 175.032 335.375 175.188 336.136 175.295C336.864 175.399 337.639 175.48 338.359 175.267C339.091 175.046 339.543 174.459 339.723 173.734Z" fill="#8BBAE9"/>
<path fill-rule="evenodd" clip-rule="evenodd" d="M295.841 155.898C295.227 155.66 294.546 155.606 293.895 155.592C293.721 155.592 293.569 155.755 293.576 155.927C293.621 156.836 293.704 157.742 293.675 158.65C293.668 158.949 293.641 159.353 293.541 159.588C293.533 159.602 293.501 159.652 293.487 159.674C293.483 159.674 293.48 159.67 293.472 159.67C293.405 159.638 293.353 159.595 293.297 159.546C292.367 158.736 292.118 157.413 291.247 156.552C290.787 156.097 290.109 155.744 289.486 155.585C288.811 155.41 288.125 155.549 287.52 155.133C287.295 154.98 287.053 155.205 287.037 155.424C286.954 156.662 286.645 158.075 287.139 159.262C287.576 160.318 288.587 160.812 289.586 161.213C290.07 161.405 290.557 161.609 291 161.879C291.249 162.028 291.684 162.302 291.602 162.644C291.518 162.996 290.945 162.799 290.66 162.724C290.084 162.569 289.529 162.331 288.977 162.11C288.061 161.741 286.638 161.204 285.788 161.965C285.411 162.302 285.503 162.844 285.71 163.236C286.038 163.867 286.727 164.339 287.332 164.67C288.7 165.417 290.275 164.93 291.715 165.331C292.046 165.424 293.045 165.827 292.904 166.317C292.857 166.491 292.576 166.609 292.434 166.668C292.079 166.811 291.652 166.906 291.271 166.861C289.817 166.691 288.653 165.574 287.175 165.47C286.527 165.429 285.705 165.652 285.232 166.115C284.835 166.505 284.88 167.074 285.127 167.529C285.426 168.08 285.997 168.487 286.538 168.77C287.161 169.101 287.85 169.275 288.555 169.262C289.962 169.226 291.343 168.503 292.701 169.187C292.885 169.278 293.109 169.414 293.17 169.624C293.219 169.787 293.045 169.955 292.943 170.054C292.472 170.496 291.647 170.723 291.022 170.75C290.269 170.789 289.522 170.492 288.802 170.293C288.049 170.082 287.295 169.998 286.524 170.189C285.965 170.327 285.403 170.701 285.365 171.324C285.326 171.896 285.709 172.408 286.092 172.789C286.602 173.294 287.256 173.653 287.932 173.872C288.661 174.115 289.511 173.991 290.244 173.827C290.999 173.659 291.736 173.394 292.505 173.258C292.707 173.222 292.864 173.186 293.049 173.09C293.253 172.988 293.443 172.863 293.661 172.798C293.845 172.743 293.842 172.973 293.856 173.122C293.892 173.478 293.471 173.717 293.223 173.895C292.984 174.065 292.779 174.271 292.533 174.425C292.245 174.595 291.933 174.717 291.627 174.841C291.019 175.09 290.372 175.342 289.92 175.84C289.486 176.323 289.411 177.048 289.638 177.642C290.115 178.89 291.79 178.824 292.81 178.403C293.469 178.138 293.931 177.678 294.28 177.066C294.71 176.31 294.902 175.47 295.6 174.93C295.827 175.2 295.865 175.503 295.73 175.89C295.553 176.419 295.143 176.892 294.799 177.323C294.123 178.169 293.017 179.225 293.092 180.41C293.099 180.551 293.195 180.684 293.341 180.714C293.992 180.861 294.656 180.886 295.265 180.584C295.769 180.331 296.108 179.826 296.342 179.332C296.762 178.45 296.933 177.365 297.523 176.568C297.533 176.828 297.435 177.077 297.316 177.376C297.107 177.916 297.161 178.464 297.338 179.004C297.604 179.826 298.323 180.455 299.173 179.95C299.635 179.676 299.962 179.164 300.208 178.702C300.487 178.172 300.609 177.576 300.627 176.978C300.645 176.239 300.463 175.508 300.189 174.816C301.726 175.772 304.13 176.288 304.866 174.229C305.494 172.461 302.984 172.907 301.694 172.589C301.896 172.557 302.096 172.547 302.288 172.533C302.839 172.497 303.391 172.49 303.937 172.404C304.955 172.248 305.858 171.661 305.84 170.526C305.829 169.545 304.748 169.734 304.112 169.898C303.593 170.029 302.685 170.377 302.102 170.129C303.258 169.595 304.542 169.008 305.101 167.825C305.353 167.284 305.538 166.434 305.267 165.868C305.047 165.41 304.481 165.537 304.123 165.708C303.144 166.174 302.491 167.12 301.545 167.647C301.32 167.771 301.085 167.881 300.836 167.959C300.748 167.991 300.648 168.02 300.552 168.03C300.517 168.034 300.471 168.03 300.442 168.024C300.438 168.009 300.438 167.991 300.442 167.966C300.467 167.821 300.532 167.685 300.595 167.554C300.736 167.255 300.929 167.017 301.196 166.815C301.701 166.439 302.277 166.181 302.757 165.766C303.296 165.3 303.579 164.656 303.706 163.967C303.819 163.355 303.858 162.644 303.59 162.067C303.308 161.47 302.739 161.292 302.12 161.403C300.396 161.709 300.442 163.653 299.837 164.912C299.676 165.246 299.429 165.553 299.184 165.827C299.08 165.94 298.796 166.278 298.618 166.256C298.508 166.239 298.518 165.716 298.522 165.616C298.525 165.165 298.647 164.783 298.863 164.396C299.413 163.415 300.349 162.65 300.552 161.498C300.686 160.737 300.523 159.692 299.734 159.339C298.899 158.966 298.002 159.741 297.661 160.456C297.231 161.353 297.444 162.522 296.723 163.261C296.405 162.903 296.339 162.434 296.399 161.908C296.48 161.138 296.737 160.397 296.936 159.656C297.127 158.945 297.31 158.188 297.188 157.448C297.064 156.69 296.538 156.168 295.841 155.898Z" fill="#8BBAE9"/>
<path fill-rule="evenodd" clip-rule="evenodd" d="M327.279 164.817C327.195 164.162 326.911 163.547 326.604 162.968C326.522 162.814 326.305 162.76 326.164 162.853C325.389 163.33 324.633 163.838 323.824 164.255C323.557 164.389 323.191 164.564 322.938 164.588C322.92 164.588 322.863 164.584 322.834 164.584C322.834 164.582 322.834 164.579 322.834 164.568C322.831 164.496 322.843 164.429 322.856 164.357C323.117 163.148 324.15 162.291 324.485 161.113C324.664 160.492 324.644 159.727 324.481 159.101C324.307 158.426 323.856 157.896 323.928 157.164C323.953 156.897 323.634 156.79 323.435 156.882C322.317 157.413 320.929 157.825 320.125 158.831C319.414 159.724 319.472 160.848 319.601 161.915C319.666 162.434 319.726 162.953 319.705 163.476C319.696 163.764 319.666 164.28 319.329 164.368C318.976 164.468 318.871 163.87 318.802 163.585C318.657 163.007 318.6 162.405 318.525 161.815C318.403 160.834 318.187 159.328 317.105 158.952C316.633 158.789 316.203 159.126 315.957 159.5C315.566 160.093 315.48 160.923 315.485 161.612C315.494 163.173 316.683 164.314 317.03 165.769C317.105 166.106 317.241 167.171 316.742 167.288C316.565 167.327 316.327 167.142 316.206 167.042C315.907 166.804 315.619 166.477 315.473 166.12C314.923 164.767 315.335 163.209 314.708 161.865C314.436 161.274 313.838 160.667 313.208 160.477C312.671 160.314 312.202 160.63 311.921 161.068C311.581 161.591 311.502 162.291 311.516 162.903C311.527 163.607 311.705 164.294 312.059 164.901C312.771 166.12 314.069 166.978 314.13 168.496C314.141 168.707 314.13 168.963 313.973 169.123C313.856 169.244 313.625 169.173 313.49 169.129C312.875 168.931 312.277 168.315 311.949 167.785C311.547 167.146 311.452 166.345 311.278 165.624C311.096 164.858 310.808 164.158 310.267 163.578C309.873 163.159 309.275 162.843 308.711 163.109C308.19 163.351 307.927 163.934 307.782 164.457C307.583 165.146 307.59 165.89 307.723 166.587C307.864 167.348 308.384 168.027 308.877 168.589C309.393 169.176 309.98 169.688 310.474 170.297C310.602 170.452 310.709 170.574 310.883 170.694C311.069 170.819 311.271 170.925 311.434 171.086C311.57 171.221 311.366 171.328 311.246 171.412C310.95 171.62 310.537 171.362 310.26 171.231C310 171.106 309.717 171.025 309.463 170.884C309.18 170.719 308.921 170.496 308.661 170.289C308.151 169.88 307.615 169.436 306.961 169.283C306.33 169.133 305.659 169.418 305.247 169.905C304.386 170.929 305.256 172.359 306.117 173.052C306.668 173.496 307.295 173.682 307.999 173.693C308.871 173.698 309.696 173.464 310.509 173.809C310.382 174.14 310.133 174.321 309.73 174.393C309.18 174.493 308.568 174.364 308.027 174.271C306.953 174.083 305.5 173.628 304.499 174.264C304.376 174.346 304.307 174.488 304.351 174.634C304.535 175.274 304.833 175.865 305.392 176.253C305.858 176.577 306.466 176.626 307.014 176.59C307.988 176.529 309.02 176.156 310 176.284C309.776 176.423 309.513 176.455 309.193 176.498C308.618 176.576 308.165 176.885 307.778 177.301C307.191 177.934 306.986 178.869 307.839 179.368C308.305 179.64 308.91 179.676 309.433 179.669C310.033 179.66 310.616 179.477 311.143 179.203C311.799 178.862 312.351 178.351 312.825 177.778C312.732 179.581 313.44 181.935 315.605 181.583C317.451 181.28 315.847 179.296 315.502 178.016C315.627 178.172 315.734 178.346 315.837 178.507C316.139 178.973 316.409 179.452 316.747 179.886C317.379 180.704 318.326 181.21 319.314 180.644C320.163 180.161 319.477 179.307 319.026 178.826C318.663 178.439 317.916 177.813 317.856 177.184C318.876 177.934 320.014 178.774 321.32 178.691C321.918 178.652 322.75 178.4 323.112 177.891C323.407 177.476 323.022 177.046 322.7 176.814C321.821 176.181 320.675 176.064 319.759 175.494C319.538 175.356 319.329 175.204 319.136 175.029C319.065 174.961 318.998 174.891 318.937 174.812C318.915 174.78 318.901 174.737 318.89 174.708C318.901 174.701 318.919 174.691 318.944 174.683C319.08 174.633 319.233 174.624 319.377 174.617C319.705 174.595 320.011 174.651 320.313 174.787C320.89 175.043 321.395 175.428 321.989 175.643C322.66 175.893 323.357 175.825 324.021 175.605C324.614 175.408 325.253 175.095 325.63 174.583C326.014 174.051 325.897 173.464 325.502 172.977C324.395 171.615 322.718 172.596 321.323 172.674C320.949 172.696 320.566 172.628 320.208 172.544C320.061 172.508 319.623 172.422 319.556 172.259C319.521 172.156 319.984 171.91 320.068 171.864C320.466 171.654 320.858 171.572 321.306 171.575C322.433 171.583 323.55 172.032 324.658 171.65C325.389 171.401 326.227 170.75 326.153 169.889C326.075 168.98 324.961 168.566 324.171 168.616C323.176 168.674 322.259 169.424 321.262 169.15C321.423 168.699 321.803 168.414 322.286 168.212C323.002 167.913 323.774 167.777 324.52 167.592C325.239 167.417 325.985 167.209 326.576 166.746C327.177 166.274 327.379 165.559 327.279 164.817Z" fill="#A4D0FC"/>
<path fill-rule="evenodd" clip-rule="evenodd" d="M322.495 158.551C322.122 160.182 321.795 161.822 321.33 163.43C320.849 165.075 320.162 166.602 319.221 168.041C317.278 171.008 314.804 173.578 312.799 176.505C312.717 176.627 312.731 176.747 312.795 176.831C312.41 177.561 312.187 178.39 312.027 179.182C311.746 180.566 311.66 181.982 311.605 183.385C311.535 185.104 311.551 186.814 311.63 188.532C311.725 190.548 311.857 192.567 311.775 194.592C311.768 194.705 311.76 194.821 311.754 194.939C311.729 195.358 312.38 195.355 312.4 194.939C312.515 192.97 312.396 190.996 312.301 189.023C312.216 187.266 312.176 185.516 312.237 183.759C312.287 182.4 312.358 181.038 312.589 179.694C312.799 178.471 313.137 177.091 314.057 176.203C314.19 176.074 314.176 175.915 314.093 175.8C315.964 173.255 318.112 170.918 319.847 168.269C320.774 166.854 321.436 165.325 321.92 163.703C322.414 162.071 322.738 160.386 323.121 158.725C323.215 158.315 322.588 158.145 322.495 158.551Z" fill="#8BBAE9"/>
<path fill-rule="evenodd" clip-rule="evenodd" d="M311.915 195.038C311.566 191.885 310.112 189.064 308.612 186.323C307.121 183.602 305.553 180.847 305.094 177.731C305.033 177.318 304.408 177.497 304.471 177.905C305.382 184.118 310.567 188.765 311.269 195.038C311.313 195.448 311.965 195.452 311.915 195.038Z" fill="#8BBAE9"/>
<path fill-rule="evenodd" clip-rule="evenodd" d="M321.447 180.264C318.674 181.473 315.956 183.329 314.094 185.741C313.078 187.055 312.48 188.557 312.102 190.125C311.964 188.489 311.661 186.867 311.348 185.256C310.616 181.498 310.054 177.721 309.701 173.906C309.563 172.391 309.458 170.873 309.386 169.353C309.368 168.938 308.721 168.938 308.738 169.353C308.93 173.571 309.417 177.764 310.072 181.932C310.512 184.747 311.262 187.536 311.477 190.385C311.235 188.845 310.865 187.322 310.392 185.84C309.717 183.723 308.806 181.666 307.626 179.781C307.632 179.695 307.607 179.61 307.54 179.536C307.462 179.446 307.379 179.357 307.299 179.271C307.003 178.827 306.698 178.397 306.374 177.978C306.228 177.792 306.022 177.86 305.912 178.009C305.417 177.629 304.888 177.291 304.315 176.996C302.984 176.306 301.323 175.858 300.684 174.346C300.524 173.963 299.962 174.297 300.125 174.674C300.759 176.179 302.309 176.732 303.661 177.391C304.877 177.98 305.904 178.741 306.821 179.71C308.115 181.683 309.084 183.873 309.798 186.115C310.666 188.834 311.164 191.693 311.171 194.552C311.171 194.567 311.171 194.581 311.174 194.598C311.128 194.808 311.296 194.946 311.473 194.961C311.561 195.256 312.082 195.213 312.109 194.844C312.347 191.779 312.696 188.56 314.664 186.056C316.477 183.748 319.105 181.988 321.774 180.823C322.159 180.655 321.828 180.097 321.447 180.264Z" fill="#8BBAE9"/>
<path fill-rule="evenodd" clip-rule="evenodd" d="M302.043 158.483C301.456 158.184 300.786 158.066 300.136 157.989C299.965 157.97 299.798 158.12 299.787 158.29C299.745 159.198 299.737 160.111 299.621 161.011C299.585 161.31 299.517 161.711 299.397 161.932C299.388 161.946 299.354 161.992 299.336 162.014C299.333 162.01 299.329 162.01 299.322 162.007C299.261 161.967 299.211 161.921 299.161 161.867C298.312 160.968 298.19 159.631 297.404 158.689C296.991 158.191 296.352 157.771 295.748 157.554C295.093 157.316 294.401 157.39 293.834 156.917C293.629 156.743 293.366 156.942 293.327 157.159C293.124 158.387 292.682 159.759 293.059 160.988C293.391 162.084 294.351 162.671 295.303 163.165C295.768 163.407 296.228 163.657 296.651 163.969C296.878 164.139 297.288 164.454 297.174 164.783C297.052 165.132 296.502 164.88 296.228 164.776C295.666 164.563 295.143 164.275 294.61 164.001C293.735 163.546 292.372 162.873 291.448 163.55C291.047 163.848 291.082 164.396 291.249 164.808C291.517 165.467 292.156 166.004 292.725 166.391C294.016 167.266 295.63 166.931 297.028 167.472C297.349 167.597 298.301 168.091 298.115 168.567C298.052 168.735 297.761 168.827 297.612 168.874C297.245 168.981 296.812 169.033 296.434 168.951C295.004 168.641 293.956 167.415 292.494 167.173C291.855 167.067 291.011 167.213 290.499 167.626C290.065 167.977 290.058 168.546 290.258 169.023C290.499 169.599 291.033 170.057 291.542 170.396C292.131 170.787 292.8 171.029 293.5 171.078C294.909 171.181 296.349 170.594 297.636 171.405C297.811 171.516 298.015 171.672 298.063 171.885C298.094 172.053 297.902 172.202 297.789 172.291C297.281 172.685 296.438 172.832 295.812 172.802C295.057 172.768 294.343 172.394 293.65 172.131C292.917 171.849 292.173 171.69 291.392 171.808C290.822 171.892 290.224 172.209 290.122 172.823C290.033 173.389 290.363 173.937 290.709 174.354C291.168 174.905 291.785 175.324 292.433 175.608C293.137 175.917 293.994 175.879 294.738 175.786C295.513 175.693 296.27 175.502 297.045 175.437C297.251 175.419 297.412 175.403 297.607 175.324C297.818 175.242 298.02 175.136 298.24 175.093C298.429 175.054 298.404 175.285 298.404 175.433C298.408 175.793 297.966 175.989 297.7 176.142C297.448 176.284 297.224 176.477 296.961 176.601C296.662 176.746 296.334 176.831 296.017 176.928C295.389 177.116 294.723 177.308 294.227 177.759C293.745 178.197 293.604 178.912 293.77 179.527C294.123 180.814 295.793 180.91 296.853 180.591C297.533 180.387 298.04 179.975 298.447 179.399C298.946 178.688 299.218 177.87 299.965 177.401C300.169 177.692 300.174 177.999 300.004 178.367C299.773 178.879 299.325 179.31 298.937 179.705C298.184 180.484 296.982 181.425 296.939 182.61C296.936 182.756 297.016 182.895 297.16 182.94C297.793 183.151 298.45 183.239 299.084 182.997C299.612 182.795 299.997 182.322 300.278 181.857C300.783 181.013 301.057 179.954 301.722 179.218C301.708 179.481 301.583 179.715 301.434 180.004C301.174 180.519 301.174 181.066 301.298 181.622C301.486 182.464 302.142 183.165 303.034 182.745C303.525 182.514 303.894 182.037 304.186 181.599C304.52 181.103 304.698 180.519 304.773 179.925C304.863 179.193 304.752 178.45 304.545 177.73C305.987 178.826 308.325 179.576 309.258 177.596C310.054 175.9 307.507 176.099 306.259 175.657C306.458 175.647 306.662 175.657 306.853 175.661C307.408 175.679 307.956 175.726 308.511 175.693C309.538 175.636 310.491 175.142 310.584 174.008C310.665 173.031 309.574 173.115 308.923 173.21C308.397 173.293 307.462 173.556 306.903 173.251C308.101 172.834 309.438 172.369 310.111 171.245C310.412 170.733 310.675 169.904 310.462 169.318C310.288 168.837 309.712 168.912 309.338 169.048C308.322 169.413 307.578 170.292 306.59 170.725C306.349 170.829 306.105 170.913 305.851 170.971C305.758 170.992 305.659 171.013 305.559 171.013C305.527 171.013 305.48 171.003 305.452 170.996C305.452 170.982 305.452 170.96 305.455 170.938C305.494 170.797 305.573 170.668 305.652 170.541C305.822 170.26 306.036 170.038 306.32 169.864C306.857 169.538 307.457 169.338 307.976 168.973C308.56 168.56 308.898 167.949 309.093 167.272C309.263 166.676 309.374 165.971 309.158 165.369C308.939 164.748 308.389 164.517 307.763 164.567C306.014 164.703 305.876 166.643 305.15 167.838C304.957 168.158 304.68 168.436 304.41 168.685C304.301 168.788 303.98 169.1 303.805 169.057C303.703 169.032 303.758 168.511 303.773 168.414C303.823 167.965 303.979 167.596 304.231 167.234C304.876 166.309 305.878 165.637 306.195 164.509C306.401 163.767 306.338 162.71 305.59 162.281C304.793 161.828 303.823 162.515 303.415 163.194C302.898 164.044 302.998 165.228 302.212 165.899C301.929 165.509 301.909 165.036 302.017 164.517C302.172 163.763 302.5 163.045 302.77 162.326C303.03 161.636 303.282 160.9 303.232 160.157C303.183 159.389 302.71 158.816 302.043 158.483Z" fill="#C3DFFA"/>
<path fill-rule="evenodd" clip-rule="evenodd" d="M319.28 214.096H305.293L300.717 196.014H323.541L319.28 214.096Z" fill="#C3DFFA"/>
<path d="M324.746 193.663H299.191V196.014H324.746V193.663Z" fill="#8BBAE9"/>
<path fill-rule="evenodd" clip-rule="evenodd" d="M312.128 196.014H300.717L305.293 214.096H312.128V196.014Z" fill="#A4D0FC"/>
<path d="M312.129 193.663H299.191V196.014H312.129V193.663Z" fill="#61A0E0"/>
<path fill-rule="evenodd" clip-rule="evenodd" d="M319.28 214.367H305.293L300.717 211.926H323.541L319.28 214.367Z" fill="#8BBAE9"/>
<path fill-rule="evenodd" clip-rule="evenodd" d="M312.128 211.926H300.717L305.293 214.367H312.128V211.926Z" fill="#61A0E0"/>
</svg>
