<svg width="426" height="260" viewBox="0 0 426 260" fill="none" xmlns="http://www.w3.org/2000/svg">
<path d="M292.163 85.8418C291.782 79.0927 280.588 78.812 280.588 78.812C280.588 78.812 270.913 88.4388 268.729 88.2553C266.545 88.0717 275.394 78.4094 275.394 78.4094C271.355 77.1395 259.78 79.9739 259.78 79.9739C259.78 79.9739 257.692 93.1485 255.62 92.4328C253.548 91.7174 258.065 80.862 258.065 80.862C253.822 81.2163 249.114 85.0846 249.114 85.0846C242.858 91.6823 251.653 99.3752 251.653 99.3752C251.653 99.3752 250.831 103.925 246.943 108.522C246.942 108.522 246.942 108.522 246.942 108.522C246.942 108.522 246.11 109.347 245.125 110.839L246.213 111.069C246.363 110.796 246.521 110.535 246.686 110.287C246.687 110.285 246.688 110.284 246.69 110.283C246.692 110.279 246.694 110.276 246.697 110.272C246.807 110.119 246.964 109.903 247.159 109.64C247.16 109.639 247.16 109.639 247.16 109.639C247.16 109.638 247.161 109.638 247.161 109.638C247.631 109.057 247.957 108.624 248.172 108.307C248.173 108.306 248.174 108.305 248.174 108.304C249.601 106.472 251.598 104.114 252.673 103.758C252.673 103.758 252.588 103.564 252.545 103.21C252.586 103.385 252.628 103.567 252.673 103.758C253.692 108.142 262.861 110.773 268.273 110.805C273.684 110.837 271.733 108.896 269.441 105.932C267.15 102.967 261.165 102.357 259.633 101.061C258.101 99.7645 260.824 99.3674 264.226 100.364C267.628 101.36 268.627 105.183 274.1 106.895C279.574 108.607 286.049 98.9992 286.049 98.9992C281.939 99.3814 275.473 95.7927 275.488 94.4064C275.503 93.0202 285.716 95.3164 287.396 95.2546C289.076 95.193 292.543 92.5909 292.163 85.8418Z" fill="#DFEBFD"/>
<path opacity="0.5" d="M255.549 70.6394C255.549 70.6394 262.288 46.4562 277.178 33.7001C279.157 32.0048 282.176 33.7436 281.725 36.3101C281.718 36.3529 281.71 36.3961 281.702 36.4399C280.861 40.8093 263.869 57.1683 255.549 70.6394Z" fill="#AFCDFB"/>
<path opacity="0.5" d="M252.926 77.4563C252.926 77.4563 270.252 48.602 293.838 38.2956C295.277 37.6671 297.005 38.2418 297.686 39.6558C298.13 40.5766 298.187 41.9169 297.231 43.8491C294.684 49.0013 267.91 63.5386 252.926 77.4563Z" fill="#AFCDFB"/>
<path opacity="0.5" d="M250.191 199.533C250.191 199.533 276.49 186.352 281.249 190.944C286.007 195.535 250.191 199.533 250.191 199.533Z" fill="#AFCDFB"/>
<path opacity="0.5" d="M245.914 201.113C245.914 201.113 281.127 198.021 281.679 205.359C282.231 212.697 245.914 201.113 245.914 201.113Z" fill="#AFCDFB"/>
<path d="M124.552 46.0457C129.043 32.1976 152.511 37.7467 152.511 37.7467C152.511 37.7467 167.386 63.0972 172.035 63.9118C176.685 64.7263 163.55 39.7543 163.55 39.7543C172.657 39.3223 195.21 51.5676 195.21 51.5676C195.21 51.5676 192.341 80.15 197.048 79.795C201.755 79.4401 198.297 54.357 198.297 54.357C206.94 57.4193 214.624 68.0551 214.624 68.0551C224.039 85.2239 201.507 96.4272 201.507 96.4272C201.507 96.4272 200.726 106.354 206.306 118.059L206.307 118.059C206.307 118.059 207.589 120.233 208.822 123.881L206.43 123.763C206.267 123.112 206.082 122.482 205.873 121.875C205.873 121.87 205.872 121.867 205.869 121.864C205.866 121.855 205.862 121.846 205.859 121.838C205.714 121.46 205.504 120.923 205.242 120.268C205.242 120.267 205.242 120.266 205.241 120.265C205.241 120.264 205.24 120.264 205.24 120.262C204.58 118.796 204.138 117.715 203.863 116.937C203.862 116.935 203.861 116.932 203.861 116.93C201.892 112.333 199.026 106.328 196.983 104.998C196.983 104.998 197.266 104.639 197.548 103.926C197.368 104.268 197.18 104.624 196.983 104.998C192.458 113.569 171.919 114.025 160.631 111.126C149.343 108.227 154.471 105.255 160.868 100.336C167.264 95.4178 180.062 97.4258 183.963 95.5656C187.865 93.7056 182.41 91.386 174.779 91.5975C167.148 91.8089 162.974 99.2244 150.636 99.7907C138.298 100.357 130.076 76.799 130.076 76.799C138.426 79.8469 153.86 75.9153 154.589 73.0202C155.317 70.1248 132.789 69.3118 129.323 68.2623C125.858 67.2128 120.062 59.8938 124.552 46.0457Z" fill="#DFEBFD"/>
<path d="M285.559 150.534C283.323 142.279 269.394 144.859 269.394 144.859C269.394 144.859 259.936 159.304 257.184 159.648C254.433 159.992 262.859 145.719 262.859 145.719C257.528 145.203 243.943 151.737 243.943 151.737C243.943 151.737 244.803 168.59 242.051 168.246C239.3 167.903 242.051 153.285 242.051 153.285C236.892 154.833 232.077 160.852 232.077 160.852C226.058 170.654 238.956 177.876 238.956 177.876C238.956 177.876 239.128 183.723 235.516 190.43L235.516 190.43C235.516 190.43 234.701 191.668 233.873 193.773H235.279C235.394 193.396 235.521 193.032 235.661 192.682C235.661 192.679 235.662 192.677 235.664 192.675C235.666 192.67 235.668 192.665 235.67 192.66C235.766 192.443 235.905 192.134 236.077 191.757C236.077 191.756 236.078 191.756 236.078 191.756C236.078 191.755 236.079 191.755 236.079 191.754C236.508 190.913 236.799 190.291 236.982 189.843C236.983 189.841 236.984 189.84 236.984 189.838C238.271 187.198 240.126 183.758 241.363 183.036C241.363 183.036 241.207 182.817 241.062 182.391C241.158 182.596 241.258 182.811 241.363 183.036C243.771 188.195 255.809 189.055 262.515 187.679C269.222 186.303 266.299 184.412 262.687 181.341C259.076 178.271 251.509 179.081 249.274 177.877C247.038 176.673 250.306 175.469 254.777 175.813C259.248 176.157 261.484 180.628 268.706 181.316C275.929 182.004 281.432 168.418 281.432 168.418C276.445 169.966 267.502 167.215 267.158 165.495C266.814 163.775 280.056 163.947 282.12 163.431C284.183 162.915 287.795 158.788 285.559 150.534Z" fill="#DFEBFD"/>
<path d="M141.198 140.877C146.151 131.493 162.312 138.407 162.312 138.407C162.312 138.407 169.831 158.468 173.069 159.634C176.306 160.799 169.99 141.226 169.99 141.226C176.584 142.052 191.252 153.661 191.252 153.661C191.252 153.661 185.625 173.829 189.05 174.162C192.474 174.494 193.121 156.049 193.121 156.049C198.946 159.327 203.137 167.924 203.137 167.924C207.756 181.429 190.176 186.663 190.176 186.663C190.176 186.663 188.377 193.694 190.923 202.797L190.924 202.797C190.924 202.797 191.573 204.518 192.004 207.291L190.301 206.909C190.264 206.421 190.21 205.945 190.136 205.483C190.137 205.48 190.136 205.477 190.134 205.475C190.133 205.468 190.132 205.461 190.131 205.455C190.073 205.165 189.99 204.754 189.883 204.25C189.883 204.25 189.883 204.249 189.883 204.248C189.883 204.247 189.882 204.247 189.882 204.246C189.591 203.11 189.409 202.279 189.309 201.686C189.308 201.684 189.308 201.682 189.308 201.681C188.468 198.133 187.159 193.464 185.858 192.253C185.858 192.253 186.106 192.031 186.398 191.554C186.225 191.777 186.046 192.01 185.858 192.253C181.539 197.844 166.731 195.609 158.987 192.118C151.242 188.627 155.296 187.133 160.503 184.399C165.711 181.665 174.651 184.704 177.685 183.855C180.719 183.006 177.091 180.66 171.584 179.859C166.078 179.059 162.155 183.863 153.223 182.73C144.292 181.597 141.327 163.653 141.327 163.653C146.944 166.884 158.518 165.986 159.403 163.998C160.287 162.01 144.21 158.614 141.852 157.428C139.494 156.241 136.245 150.262 141.198 140.877Z" fill="#CDE0FB"/>
<path d="M136.668 217.46C134.049 211.782 143.071 206.694 143.071 206.694C143.071 206.694 155.153 210.357 156.857 209.259C158.561 208.161 147.139 204.11 147.139 204.11C149.887 201.319 160.571 198.61 160.571 198.61C160.571 198.61 167.996 208.465 169.378 206.981C170.759 205.497 162.358 198.591 162.358 198.591C165.978 197.038 171.502 198.154 171.502 198.154C179.476 200.828 175.632 210.929 175.632 210.929C175.632 210.929 178.278 214.289 183.45 216.356C183.45 216.356 184.488 216.668 185.941 217.459L185.152 218.119C184.91 217.962 184.668 217.817 184.426 217.686C184.424 217.685 184.423 217.684 184.421 217.684C184.418 217.682 184.414 217.68 184.411 217.678C184.254 217.602 184.032 217.493 183.758 217.363C183.758 217.363 183.758 217.362 183.757 217.362C183.757 217.362 183.756 217.362 183.756 217.362C183.12 217.091 182.666 216.879 182.353 216.714C182.351 216.714 182.351 216.713 182.35 216.712C180.389 215.835 177.735 214.776 176.702 214.952C176.702 214.952 176.687 214.756 176.568 214.449C176.611 214.609 176.656 214.777 176.702 214.952C177.772 218.975 171.425 225.105 167.019 227.48C162.612 229.855 163.364 227.422 163.949 224.006C164.534 220.59 169.157 217.494 169.846 215.77C170.535 214.046 168.137 214.904 165.791 217.195C163.445 219.485 164.289 223.042 160.561 226.816C156.834 230.59 147.374 225.554 147.374 225.554C150.897 224.082 154.621 218.343 154.007 217.217C153.393 216.092 146.048 222.4 144.648 223.079C143.249 223.758 139.287 223.138 136.668 217.46Z" fill="#D9E8FA"/>
<path d="M108.287 182.285C108.287 182.285 111.262 182.626 113.565 182.488C116.445 182.316 119.995 182.243 120.654 183.011C121.313 183.778 121.313 183.778 120.034 184.453C119.037 184.979 115.196 186.673 112.601 185.87C110.006 185.068 106.693 185.23 106.693 185.23L108.287 182.285Z" fill="white"/>
<path d="M76.5273 153.947C76.5273 153.947 82.07 181.4 88.6676 183.496C91.9229 184.53 106.153 186.466 110.33 186.497C110.33 186.497 111.3 185.61 110.852 182.259C110.852 182.259 95.7936 177.726 93.5252 174.908C90.149 170.715 94.3949 156.905 90.2405 153.025C86.0861 149.145 79.3962 147.77 76.5273 153.947Z" fill="#7AA9E2"/>
<path d="M79.16 256.252H79.96C80.7611 256.252 81.4168 255.597 81.4168 254.795V210.482C81.4168 209.681 80.7613 209.025 79.96 209.025H79.16C78.3587 209.025 77.7031 209.681 77.7031 210.482V254.795C77.7031 255.597 78.3587 256.252 79.16 256.252Z" fill="#96C1ED"/>
<path d="M62.9082 259.356C64.6539 255.743 71.4467 253.049 79.5606 253.049C87.6745 253.049 94.4674 255.743 96.213 259.356H62.9082Z" fill="#96C1ED"/>
<path d="M67.3441 247.106H91.7798C92.0366 247.106 92.2469 246.895 92.2469 246.639V245.67C92.2469 245.413 92.0366 245.203 91.7798 245.203H67.3441C67.0871 245.203 66.877 245.413 66.877 245.67V246.639C66.877 246.896 67.0871 247.106 67.3441 247.106Z" fill="#96C1ED"/>
<path d="M77.4019 204.722C78.5402 206.653 79.8568 208.462 81.2136 210.176C85.4075 215.47 89.9728 219.835 90.768 223.962C90.9261 224.784 91.1772 225.67 91.5052 226.603C91.8374 227.548 92.2479 228.542 92.7218 229.569C94.5014 233.435 97.1627 237.767 99.82 241.704C104.414 248.511 108.733 254.19 108.733 254.19L116.654 253.853C116.337 253.059 112.882 243.661 108.26 232.175C106.384 227.513 104.388 222.553 102.462 217.771C102.206 217.132 101.949 216.496 101.695 215.866C101.107 214.402 100.528 212.961 99.9617 211.558C95.622 200.774 92.1653 192.186 92.1653 192.186C92.1653 192.186 74.8201 185.616 73.0187 189.873C71.5337 193.384 72.7437 196.823 77.4019 204.722Z" fill="#163560"/>
<path d="M108.979 252.75C108.979 252.75 109.384 259.287 110.648 259.38C110.817 259.393 117.063 259.393 117.063 259.393L125.036 259.346C125.036 259.346 124.984 257.425 122.653 257.019C120.322 256.613 116.422 254.975 115.01 251.895C113.524 248.654 108.979 252.75 108.979 252.75Z" fill="#163560"/>
<path d="M90.6348 234.076C90.6348 234.076 85.1248 237.617 85.6596 238.767C85.7307 238.92 88.7755 244.373 88.7755 244.373L92.7029 251.312C92.7029 251.312 94.3549 250.33 93.5733 248.097C92.7918 245.864 92.3203 241.66 94.3215 238.925C96.4271 236.049 90.6348 234.076 90.6348 234.076Z" fill="#163560"/>
<path d="M98.3936 189.262C98.3936 189.262 121.872 206.126 124.435 211.425C126.438 215.563 94.5344 241.865 94.5344 241.865C94.5344 241.865 89.8874 237.261 89.2798 235.034C89.2798 235.034 100.27 219.24 108.978 214.113C111.57 212.587 77.8929 208.86 74.2473 203.189C70.6018 197.518 72.6109 190.008 72.6109 190.008L98.3936 189.262Z" fill="#1C468A"/>
<path d="M60.5822 214.098H98.2872C101.063 214.098 103.334 211.827 103.334 209.051V208.236C103.334 205.46 101.063 203.189 98.2872 203.189H60.5822C57.8064 203.189 55.5352 205.46 55.5352 208.236V209.051C55.5352 211.827 57.8064 214.098 60.5822 214.098Z" fill="#1D2567"/>
<path d="M88.0243 141.539C90.1626 142.863 91.3409 144.545 91.3409 144.545C86.1251 145.894 77.4785 141.061 77.4785 141.061C77.4785 141.061 80.8358 138.805 82.0794 133.848C82.1425 133.598 82.1996 133.342 82.2504 133.079C82.4134 132.244 82.5145 131.341 82.5327 130.365L84.9288 132.511L88.9129 136.081C88.9129 136.081 88.8226 137.562 88.3241 140.11C88.2377 140.554 88.1383 141.031 88.0243 141.539Z" fill="white"/>
<path d="M98.7474 188.343C98.7358 188.396 98.7198 188.449 98.7014 188.505C98.1992 189.915 90.6067 194.701 85.4798 196.602C82.2792 197.788 71.1753 200.441 70.445 198.157C69.597 195.509 72.7007 176.214 71.9518 166.165C71.0716 153.882 74.4727 142.702 79.201 139.052C79.5581 138.789 80.2655 139.487 82.3139 140.46C84.2057 141.356 86.2955 141.612 88.0652 141.225L89.6506 142.587C91.8442 144.557 94.252 147.248 95.3443 151.372C96.0126 153.903 96.5172 157.907 96.8927 162.407C97.0356 164.151 97.1624 165.972 97.2707 167.808C97.4389 170.735 97.5863 173.686 97.6578 176.493C97.6602 176.546 97.6624 176.599 97.6624 176.654L97.6648 176.756C97.6948 177.039 97.6994 177.348 97.7018 177.631C97.711 177.915 97.7178 178.198 97.7247 178.477C97.7753 180.673 97.7731 182.712 97.8492 184.475C97.8884 185.359 98.0657 185.993 98.2547 186.498C98.4483 187.012 98.6533 187.39 98.7386 187.751C98.782 187.945 98.7935 188.138 98.7474 188.343Z" fill="#B0D4FF"/>
<path d="M88.9136 136.081C88.9136 136.081 88.8233 137.562 88.3248 140.11C84.4344 138.852 82.6695 135.339 82.0801 133.848C81.9124 133.427 81.8398 133.167 81.8398 133.167C81.8398 133.167 81.9908 133.134 82.2511 133.079C82.798 132.963 83.8278 132.744 84.9295 132.511L88.9136 136.081Z" fill="#1D2567"/>
<path d="M90.101 137.337C90.101 137.337 81.5023 137.118 81.7209 131.765C81.9395 126.413 80.9768 122.78 86.476 122.693C91.9755 122.606 92.9579 124.692 93.3196 126.496C93.681 128.301 92.3433 137.256 90.101 137.337Z" fill="white"/>
<path d="M120.879 183.407L121.627 183.65L127.992 164.058L127.244 163.815L120.879 183.407Z" fill="#1C468A"/>
<path d="M100.025 183.183L121.637 183.646L121.664 182.353L100.053 181.89L100.025 183.183Z" fill="#1C468A"/>
<path d="M80.6514 121.816C80.5972 121.726 80.452 121.635 80.1069 121.555C80.1069 121.555 80.4161 121.43 80.7902 121.487C80.9491 121.015 81.3588 120.203 82.2296 120.143C82.2296 120.143 81.7392 120.302 81.5893 120.807C82.7309 119.986 84.9284 119.631 90.5783 121.1C98.0243 123.035 94.678 127.429 93.598 127.832C92.518 128.235 90.3374 126.218 88.4901 126.04C86.643 125.861 85.8297 128.432 85.1477 128.684C84.4657 128.935 84.822 128.34 84.0528 127.814C83.2839 127.287 82.9587 128.659 83.0403 129.602C83.1219 130.546 81.7625 131.53 81.7625 131.53C81.7625 131.53 81.7625 131.53 80.8235 130.074C79.8843 128.618 79.7293 123.128 80.4573 122.093C80.5218 122.002 80.5858 121.909 80.6514 121.816Z" fill="#2C3A64"/>
<path d="M98.2564 186.497C96.1688 186.158 91.012 185.126 87.2676 182.783C80.5093 178.552 76.5273 157.084 76.5273 157.084L87.1132 170.64L97.7126 178.398L97.7264 178.476C97.777 180.672 97.7748 182.711 97.8509 184.474C97.89 185.359 98.0676 185.992 98.2564 186.497Z" fill="#91B8EF"/>
<path d="M108.317 176.545C108.317 176.545 109.067 176.795 109.943 176.545C110.819 176.294 113.822 175.544 114.322 175.794C114.822 176.044 116.386 177.295 116.762 177.545C117.137 177.796 117.7 178.859 117.7 178.859C117.354 179.111 116.42 178.253 115.95 178.19C115.481 178.128 111.726 179.453 110.694 179.328C109.661 179.203 108.098 178.734 108.098 178.734L108.317 176.545Z" fill="white"/>
<path d="M114.545 177.708C114.545 177.766 115.571 179.365 116.597 179.077L115.719 177.874L114.545 177.708Z" fill="white"/>
<path d="M109.945 176.545C109.945 176.545 111.237 175.687 111.69 175.247C111.69 175.247 111.898 175.386 111.876 175.577C111.84 175.896 111.437 176.427 111.437 176.427L109.945 176.545Z" fill="white"/>
<path d="M87.2797 146.387C81.7161 141.627 73.3656 147.015 75.3681 154.057C77.6898 162.224 82.1722 175.695 86.7823 177.003C90.0682 177.936 104.352 179.43 108.528 179.331C108.528 179.331 109.302 179.626 108.749 176.291C108.749 176.291 93.0878 171.453 91.371 168.269C90.4509 166.563 91.6813 150.248 87.4087 146.499C87.3659 146.461 87.3229 146.424 87.2797 146.387Z" fill="#B0D4FF"/>
<path d="M326.213 136.476C326.213 136.476 337.003 147.664 337.513 151.875C338.023 156.086 332.345 162.659 332.345 162.659L326.213 136.476Z" fill="#1D2567"/>
<path d="M321.337 252.425C321.337 252.425 320.956 258.359 319.808 258.441C319.655 258.453 313.984 258.44 313.984 258.44L306.744 258.382C306.744 258.382 306.795 256.638 308.912 256.274C311.029 255.91 314.575 254.43 315.863 251.636C317.218 248.697 321.337 252.425 321.337 252.425Z" fill="#163560"/>
<path d="M337.462 252.459C337.462 252.459 337.081 258.394 335.933 258.476C335.78 258.487 330.109 258.475 330.109 258.475L322.869 258.417C322.869 258.417 322.92 256.673 325.037 256.309C327.154 255.945 330.7 254.465 331.988 251.671C333.343 248.731 337.462 252.459 337.462 252.459Z" fill="#163560"/>
<path d="M313.457 188.62C313.457 188.62 315.324 200.734 322.341 222.246C329.357 243.759 330.3 253.07 330.3 253.07L337.878 252.874C337.878 252.874 337.993 229.38 334.762 218.563C331.53 207.746 334.144 179.59 334.144 179.59L313.457 188.62Z" fill="#163560"/>
<path d="M309.79 180.2C309.79 180.2 309.482 198.449 312.591 220.862C315.699 243.275 314.608 252.784 314.608 252.784L322.17 253.052C322.17 253.052 326.738 230.647 325.467 219.429C324.195 208.211 331.739 180.959 331.739 180.959L309.79 180.2Z" fill="#1C468A"/>
<path d="M324.523 137.528L320.489 140.16L314.668 139.063C314.749 138.593 315.138 136.645 315.492 134.881C315.513 134.777 315.535 134.673 315.555 134.572C315.858 133.071 316.12 131.781 316.12 131.781L321.563 129.394L323.593 128.503C323.588 128.535 323.432 130.169 323.411 130.408C323.021 134.645 324.523 137.528 324.523 137.528Z" fill="white"/>
<path d="M316.163 136.176C316.276 136.129 323.18 134.108 323.929 134.357C324.678 134.606 325.118 136.057 325.118 136.057L313.828 138.584C313.828 138.584 314.72 136.78 316.163 136.176Z" fill="#1D2567"/>
<path d="M334.64 182.507C333.459 187.839 313.995 188.43 308.989 183.576C308.419 183.023 308.397 180.455 308.62 176.993C309.055 170.229 310.429 160.055 310.493 154.856C310.524 152.346 310.875 149.779 311.339 147.448C312.328 142.48 313.827 138.583 313.827 138.583C313.827 138.583 323.34 135.531 325.118 136.057C333.682 138.594 335.821 177.175 334.64 182.507Z" fill="#1D2567"/>
<path d="M308.621 176.993C309.057 170.229 310.431 160.056 310.494 154.857C310.526 152.346 310.876 149.779 311.341 147.448L317.061 146.451C317.061 146.451 322.603 169.299 308.621 176.993Z" fill="#1D2567"/>
<path d="M311.738 167.57C311.738 167.57 312.126 168.503 311.306 169.126C310.486 169.75 309.953 170.763 310.139 171.504C310.324 172.245 312.117 173.457 312.74 173.263C313.363 173.07 314.632 172.097 314.496 171.706C314.361 171.315 315.356 168.28 313.841 167.107C312.326 165.934 311.738 167.57 311.738 167.57Z" fill="white"/>
<path d="M318.196 137.224C318.196 137.224 312.617 138.256 308.159 144.795C303.701 151.334 300.767 156.196 301.581 158.558C302.394 160.92 309.838 169.122 311.124 169.125C312.411 169.128 314.489 168.197 314.61 166.092C314.61 166.092 309.374 158.207 310.411 157.03C310.855 156.527 317.244 151.363 318.149 153.704C319.648 157.577 318.196 137.224 318.196 137.224Z" fill="#1D2567"/>
<path d="M323 130.481C321.802 132.502 317.348 134.242 315.49 134.881C315.511 134.777 315.533 134.673 315.553 134.571C315.856 133.07 316.118 131.781 316.118 131.781L321.561 129.393C322.764 129.379 323.495 129.65 323 130.481Z" fill="#FCA56B"/>
<path d="M314.068 131.446C314.068 131.446 322.823 134.198 324.452 128.72C326.082 123.242 328.31 119.907 322.789 117.919C317.268 115.93 315.555 117.696 314.567 119.392C313.578 121.089 311.833 130.589 314.068 131.446Z" fill="white"/>
<path d="M314.913 118.864C314.913 118.864 315.457 125.245 316.777 124.971C318.097 124.697 319.294 124.494 319.097 126.416C318.9 128.339 317.065 130.555 321.13 130.904C325.195 131.253 331.062 120.781 329.95 118.794C326.74 113.058 310.27 111.867 314.913 118.864Z" fill="#163560"/>
<path d="M221.298 158.021C221.136 158.25 220.447 159.35 221.332 160.59C221.389 160.668 221.427 160.731 221.45 160.786C232.039 167.148 263.803 192.887 263.803 211.029V248.613H167.941V211.015C167.941 192.757 200.138 166.608 210.494 160.59C210.496 160.59 210.496 160.59 210.496 160.59C210.829 160.125 210.938 159.68 210.938 159.293C210.938 158.519 210.496 157.977 210.496 157.977C200.115 151.824 167.942 125.869 167.942 107.611V70.0278H263.803V107.626C263.803 125.855 231.711 151.949 221.298 158.021Z" fill="#B0D4FF"/>
<path d="M269.3 258.294H161.678V253.661C161.678 250.873 163.938 248.613 166.726 248.613H264.459C267.132 248.613 269.3 250.78 269.3 253.454V258.294Z" fill="#1D2567"/>
<path d="M195.379 213.34C194.889 221.752 196.489 239.898 196.344 248.613H167.939V211.015C167.939 192.757 200.136 166.608 210.492 160.59C210.494 160.59 210.494 160.59 210.494 160.59C210.827 160.126 210.936 159.68 210.936 159.293C210.936 158.519 210.494 157.977 210.494 157.977C200.113 151.825 167.94 125.869 167.94 107.611V70.0278H186.942L200.506 73.7399V103.462C200.506 103.462 199.163 112.023 202.526 120.431C205.889 128.839 213.11 155.816 212.999 159.32C212.887 162.824 196.22 198.92 195.379 213.34Z" fill="#A4C8FC"/>
<path d="M251.38 95.0125C245.569 95.1004 235.578 96.148 219.414 100.225C208.349 103.017 189.268 100.914 179.176 99.4686C175.636 98.9614 172.469 101.706 172.469 105.283V109.614C172.469 121.549 204.584 147.405 213.076 154.033C214.363 155.038 215.115 156.578 215.115 158.21V224.585C215.115 226.85 213.997 228.961 212.141 230.26C205.462 234.935 194.208 248.614 194.208 248.614H236.771C236.771 248.614 225.356 235.413 218.951 230.513C217.488 229.394 216.626 227.664 216.626 225.823V158.192C216.626 156.568 217.364 155.034 218.631 154.019C226.956 147.351 258.37 121.401 258.37 109.474V101.896C258.37 98.0523 255.224 94.9544 251.38 95.0125Z" fill="#739AF0"/>
<path d="M264.279 73.7391H166.518C163.845 73.7391 161.678 71.572 161.678 68.8987V64.0581H269.3V68.7189C269.3 71.4916 267.052 73.7391 264.279 73.7391Z" fill="#1D2567"/>
<path d="M80.9336 90.451L106.151 94.0484L89.4164 82.6421L88.5656 86.2986L82.4329 87.4093L80.9336 90.451Z" fill="#9EC3F6"/>
<path d="M106.15 94.0484L85.1651 83.2289L64.5977 82.1943L106.15 94.0484Z" fill="#CDE0FB"/>
<path d="M89.416 82.6419L106.151 94.0482L93.1959 76.2217L89.416 82.6419Z" fill="#CDE0FB"/>
<path d="M208.856 59.4423C206.612 63.3491 203.788 64.857 203.788 64.857H192.043C192.043 64.857 210.569 56.4619 208.856 59.4423Z" fill="#233862"/>
<path d="M199.834 89.669C199.528 90.0197 199.489 90.4117 199.641 90.8303C199.641 90.8319 199.642 90.8345 199.644 90.8361C199.924 91.6102 200.849 92.4748 201.924 93.3381C202.062 93.4489 202.184 93.5498 202.29 93.6432C202.318 93.6678 202.346 93.6923 202.373 93.7169C202.394 93.736 202.415 93.7557 202.436 93.7739C203.439 94.698 203.061 94.9098 204.862 96.7849C206.916 98.9217 208.33 98.9601 208.732 98.7656C209.072 98.5996 208.381 97.4665 207.615 96.1926C207.578 96.1312 207.541 96.069 207.503 96.0069C207.401 95.8376 207.3 95.6657 207.199 95.4955C206.301 93.9625 206.532 93.2432 206.744 90.9619C206.917 89.108 209.628 80.6047 209.628 80.6047L205.693 79.9268C205.693 79.9268 204.508 86.6979 203.202 87.7406C202.504 88.2963 201.722 88.3035 201.051 88.7155C201.004 88.7441 200.957 88.7736 200.912 88.8037C200.53 89.0563 200.141 89.3173 199.834 89.669Z" fill="white"/>
<path d="M199.834 89.6693C199.528 90.0201 199.489 90.412 199.641 90.8306C199.641 90.8323 199.642 90.8348 199.644 90.8365C199.987 91.6099 200.889 92.47 201.928 93.3305C202.064 93.4432 202.184 93.5467 202.29 93.6436C202.318 93.6682 202.346 93.6926 202.373 93.7173C202.394 93.7364 202.415 93.7561 202.436 93.7743C203.439 94.6984 203.061 94.9101 204.862 96.7852C206.916 98.922 208.33 98.9605 208.732 98.766C209.072 98.6 208.381 97.4669 207.615 96.1929C207.215 96.0466 205.358 95.2922 203.954 93.4956C202.718 91.9176 201.893 89.8901 201.051 88.7158C201.004 88.7445 200.957 88.7739 200.911 88.8041C200.53 89.0566 200.141 89.3177 199.834 89.6693Z" fill="#233862"/>
<path d="M231.565 87.2113C231.809 88.426 233.54 88.2234 235.475 87.7506C237.409 87.2778 236.949 87.8398 239.703 87.535C242.456 87.2302 243.291 86.2035 243.374 85.7943C243.45 85.4309 242.089 85.3029 240.63 85.1347C240.446 85.1141 240.262 85.0915 240.078 85.0687C238.43 84.8621 237.224 83.7989 235.727 82.9257C234.309 82.0986 232.194 78.729 232.194 78.729L228.418 79.0281C228.418 79.0281 230.399 82.0378 231.166 83.3463C231.616 84.116 231.593 85.1336 231.536 85.9195C231.507 86.3467 231.479 86.7835 231.565 87.2113Z" fill="white"/>
<path d="M235.477 87.7507C237.411 87.2778 236.951 87.8398 239.705 87.535C242.458 87.2302 243.292 86.2036 243.376 85.7943C243.451 85.4309 242.091 85.303 240.632 85.1348L240.618 85.1629C240.618 85.1629 238.967 86.3337 236.675 86.3885C234.807 86.4339 232.828 85.8986 231.539 85.9195C231.509 86.3468 231.481 86.7834 231.568 87.2113C231.811 88.4261 233.542 88.2235 235.477 87.7507Z" fill="#233862"/>
<path d="M217.095 63.0666L213.565 72.5651L208.957 84.9672C208.957 84.9672 207.706 85.088 206.508 84.7435C205.406 84.4247 204.141 83.5908 204.141 83.5908C204.141 83.5908 205.42 70.2744 207.807 62.6304C208.419 60.6682 209.105 59.0812 209.861 58.1878C213.562 53.8145 217.095 63.0666 217.095 63.0666Z" fill="#233862"/>
<path d="M213.508 47.9821C211.196 47.2361 204.6 48.1939 197.974 49.4908L196.587 47.2026L182.276 46.085C182.276 46.085 177.554 56.5574 180.139 63.2302C180.519 64.2109 181.46 64.6248 182.747 64.6453C182.747 64.6459 182.748 64.6464 182.748 64.6472C182.748 64.6472 191.288 64.8556 194.053 64.8556C201.17 64.8556 209.116 59.9634 210.143 59.7578C211.826 59.4214 212.499 62.7861 214.181 66.3189C215.863 69.8518 229.994 81.9641 229.994 81.9641C229.994 81.9641 232.166 81.9856 233.063 81.6492C234.028 81.2874 234.381 80.8174 234.381 80.8174C234.381 80.8174 218.723 49.6643 213.508 47.9821Z" fill="#2B478B"/>
<path d="M195.068 5.17835C193.995 4.53972 192.95 4.44726 192.316 4.46766C191.859 4.48237 191.403 4.4388 190.949 4.37796C185.526 3.64926 182.263 11.5293 182.071 13.9169C181.717 18.318 179.389 18.9889 176.111 21.7453C169.541 27.2719 171.468 33.6938 175.061 36.08C177.216 37.5118 181.016 36.0798 181.016 36.0798C181.07 36.1175 191.408 30.3005 196.504 27.4944C204.144 26.4085 198.137 7.00561 195.068 5.17835Z" fill="#233862"/>
<path d="M192.23 25.1062C192.253 25.1207 189.723 25.9844 188.031 25.2353C186.44 24.5319 185.235 21.9138 185.258 21.9124C185.982 21.8789 186.777 21.246 187.389 17.0933L187.697 17.2039L192.88 19.0689C192.88 19.0689 192.505 20.732 192.262 22.3153C192.057 23.6448 191.947 24.9183 192.23 25.1062Z" fill="white"/>
<path d="M192.882 19.0686C192.882 19.0686 192.507 20.7317 192.264 22.315C189.287 21.7791 188.119 18.813 187.699 17.2036L192.882 19.0686Z" fill="#ED975D"/>
<path d="M193.654 20.7193C193.654 20.7193 186.562 19.7675 187.223 15.3605C187.884 10.9536 187.414 7.86266 191.969 8.284C196.525 8.70534 197.15 10.5186 197.287 12.0431C197.425 13.5678 195.515 20.8534 193.654 20.7193Z" fill="white"/>
<path d="M197.031 9.62744C197.031 9.62744 192.491 13.5393 189.403 13.8548C186.315 14.1701 185.146 13.179 185.146 13.179C185.146 13.179 186.967 11.668 188.062 9.22927C188.385 8.51031 189.067 8.01709 189.852 7.94926C192.056 7.75918 196.236 7.67223 197.031 9.62744Z" fill="#233862"/>
<path d="M194.191 9.27755C194.191 9.27755 195.71 10.7458 196.188 11.835C196.65 12.886 196.788 15.3996 196.421 16.3978C196.421 16.3978 198.787 11.7971 197.447 9.56176C196.027 7.19146 194.191 9.27755 194.191 9.27755Z" fill="#233862"/>
<path d="M198.203 35.5522C197.989 49.9067 198.144 46.9072 196.574 48.2694C196.196 48.5973 195.132 48.7927 193.732 48.8852C189.331 49.1773 181.593 48.4523 181.299 47.6386C180.284 44.8242 181.001 43.9497 180.153 39.6406C180.065 39.1823 179.956 38.6863 179.828 38.146C179.121 35.1864 178.434 34.1795 180.94 29.425C183.212 25.118 185.573 21.6223 185.785 21.7484C191.78 25.3072 192.263 22.3159 192.263 22.3159C192.263 22.3159 198.308 28.5505 198.203 35.5522Z" fill="white"/>
<path d="M213.565 72.5651L208.957 84.9672C208.957 84.9672 207.706 85.0879 206.508 84.7434C205.406 84.4247 204.141 83.5908 204.141 83.5908C204.141 83.5908 205.42 70.2744 207.807 62.6304L213.565 72.5651Z" fill="#2B478B"/>
<path d="M192.264 22.3154C192.264 22.3154 198.432 23.3612 199.157 26.0172C199.881 28.6732 204.143 44.2866 204.143 44.2866C204.143 44.2866 201.008 44.85 199.559 43.4013C198.11 41.9527 194.518 29.9609 194.518 29.9609L192.264 22.3154Z" fill="white"/>
<path d="M193.733 48.8854C189.332 49.1775 181.594 48.4524 181.3 47.6388C180.285 44.8244 181.001 43.9499 180.154 39.6407L182.277 33.6626C182.277 33.6626 181.926 40.3196 183.89 42.0706C185.851 43.8216 191.928 45.4505 192.882 46.9136C193.342 47.6158 193.645 48.3199 193.733 48.8854Z" fill="#EBF3FF"/>
<path d="M188.689 46.0853C188.689 46.0853 193.032 45.1185 193.733 45.5038C194.433 45.8891 196.146 47.2927 196.36 47.7809C196.575 48.2693 194.8 47.4101 194.223 47.2555C193.849 47.1553 192.865 47.4971 192.378 47.6594C190.329 48.3425 189.073 47.9912 189.073 47.9912L188.689 46.0853Z" fill="white"/>
<path d="M185.78 21.7451C185.78 21.7451 179.949 22.1043 177.931 24.9195C175.089 28.8825 169.453 45.7717 172.683 48.0241C176.321 50.5608 189.24 48.6878 189.24 48.6878C189.24 48.6878 189.67 46.6781 189.071 45.7062C188.473 44.7341 178.753 43.1639 178.304 42.7155C177.856 42.2668 183.912 33.967 183.912 32.6212C183.912 31.2752 185.78 21.7451 185.78 21.7451Z" fill="white"/>
<path d="M193.943 46.7124C193.943 46.7124 194.853 47.886 195.151 48.0262C195.45 48.1663 195.643 48.1314 195.643 48.1314L195.029 47.0279L193.943 46.7124Z" fill="white"/>
<path d="M193.732 45.5034L196.378 46.788C196.378 46.788 196.265 46.9722 195.94 46.9573C195.614 46.9424 194.792 46.6421 194.792 46.6421L193.732 45.5034Z" fill="white"/>
<path d="M195.15 49.8242H216.076L222.371 34.1709H201.477L195.15 49.8242Z" fill="#1D2567"/>
<path d="M216.322 49.2144H188.689V49.8241H216.076L216.322 49.2144Z" fill="#1D2567"/>
<path d="M210.793 41.9973C210.951 41.4471 210.632 41.001 210.082 41.001C209.532 41.001 208.958 41.4471 208.8 41.9973C208.642 42.5475 208.96 42.9935 209.511 42.9935C210.061 42.9935 210.635 42.5475 210.793 41.9973Z" fill="white"/>
<path d="M347.011 60.2961L351.504 74.7326C351.57 74.9453 351.596 75.1618 351.586 75.3717C351.554 76.137 351.046 76.8343 350.274 77.0747L325.202 84.8781C324.425 85.1199 323.61 84.8276 323.15 84.2114C323.025 84.0454 322.927 83.8559 322.862 83.6472L318.37 69.2168C318.063 68.2292 318.613 67.182 319.599 66.8751L344.67 59.0717C345.654 58.7659 346.7 59.312 347.011 60.2961Z" fill="#CDE0FB"/>
<path d="M351.585 75.3725C351.552 76.1377 351.045 76.835 350.273 77.0755L325.201 84.8789C324.424 85.1206 323.609 84.8283 323.148 84.2121L335.733 72.2051L351.585 75.3725Z" fill="#BED7FB"/>
<path d="M347.011 60.2962L336.035 74.5873L318.6 69.9553L318.37 69.2167C318.063 68.2291 318.613 67.1819 319.599 66.875L344.67 59.0717C345.654 58.766 346.7 59.3121 347.011 60.2962Z" fill="#DFEBFD"/>
<path d="M259.309 7.39285L256.162 19.4524C256.115 19.6302 256.039 19.7929 255.941 19.9355C255.585 20.4569 254.926 20.7236 254.28 20.5552L233.337 15.0891C232.688 14.9198 232.245 14.36 232.191 13.7282C232.177 13.5579 232.19 13.3824 232.236 13.2079L235.382 1.15348C235.597 0.328634 236.438 -0.164583 237.262 0.0503144L258.205 5.5165C259.027 5.73066 259.521 6.56874 259.309 7.39285Z" fill="#CDE0FB"/>
<path d="M255.943 19.9361C255.587 20.4574 254.928 20.7242 254.283 20.5558L233.339 15.0896C232.69 14.9203 232.247 14.3605 232.193 13.7287L246.232 10.8115L255.943 19.9361Z" fill="#BED7FB"/>
<path d="M259.311 7.39303L245.404 12.6096L235.223 1.77041L235.384 1.15348C235.599 0.328634 236.44 -0.164583 237.264 0.0503144L258.207 5.5165C259.029 5.73084 259.523 6.56892 259.311 7.39303Z" fill="#DFEBFD"/>
<path d="M425.517 259.425H0.482738C0.217288 259.425 0 259.207 0 258.942V258.777C0 258.512 0.217288 258.295 0.482738 258.295H425.517C425.783 258.295 426 258.512 426 258.777V258.942C426 259.207 425.783 259.425 425.517 259.425Z" fill="#2E3552"/>
</svg>
